<?xml version="1.0" standalone="no"?>
<!DOCTYPE svg PUBLIC "-//W3C//DTD SVG 20010904//EN"
 "http://www.w3.org/TR/2001/REC-SVG-20010904/DTD/svg10.dtd">
<svg version="1.0" xmlns="http://www.w3.org/2000/svg"
 width="300.000000pt" height="103.000000pt" viewBox="0 0 300.000000 103.000000"
 preserveAspectRatio="xMidYMid meet">
<metadata>
Created by potrace 1.10, written by Peter Selinger 2001-2011
</metadata>
<g transform="translate(0.000000,103.000000) scale(0.100000,-0.100000)"
fill="#FFFFFF" stroke="none">
<path d="M2164 645 c-3 -13 2 -28 15 -39 19 -17 21 -32 23 -150 0 -79 3 -113 7 -86 6
43 8 45 41 48 19 2 40 8 47 14 7 5 16 7 21 5 19 -12 34 14 41 71 12 101 33 99
39 -3 4 -64 10 -72 46 -66 4 1 14 -3 21 -9 8 -6 27 -12 44 -12 29 -1 31 -3 31
-40 0 -21 5 -38 11 -38 7 0 9 19 6 56 -3 38 -1 57 7 60 14 5 78 8 118 6 l27
-2 3 -102 3 -103 55 -6 55 -6 -60 1 -60 1 -3 98 -3 97 -64 0 -64 0 -3 -57 c-2
-45 -7 -59 -20 -61 -13 -2 -17 5 -20 35 -3 36 -5 38 -40 41 -21 2 -38 7 -38
13 0 5 -11 9 -25 9 -28 0 -30 3 -41 75 l-8 50 -6 -60 c-5 -55 -7 -60 -30 -63
-14 -2 -29 -8 -34 -13 -6 -5 -25 -9 -43 -9 -32 0 -33 -1 -33 -40 0 -33 -3 -40
-20 -40 -19 0 -20 7 -20 129 0 102 -3 131 -15 141 -12 10 -15 10 -15 -4 0 -9
-6 -16 -12 -16 -22 0 -41 -53 -47 -130 -5 -60 -9 -75 -23 -78 -15 -3 -18 7
-20 70 -3 70 -4 73 -33 87 -16 8 -32 18 -33 23 -2 5 -11 3 -19 -4 -8 -7 -25
-17 -37 -23 -18 -9 -21 -20 -24 -88 -3 -74 -4 -78 -25 -75 -19 3 -22 10 -25
56 -3 50 -4 52 -28 46 -14 -4 -31 -1 -39 6 -10 8 -15 9 -15 1 0 -6 -11 -8 -29
-5 l-30 6 -3 -63 c-3 -58 -5 -64 -25 -67 -21 -3 -23 1 -23 40 0 24 -5 50 -10
58 -9 13 -12 13 -24 -2 -9 -12 -27 -18 -54 -18 -40 0 -40 0 -52 50 -7 28 -18
50 -25 50 -7 0 -18 -22 -25 -50 l-12 -50 -43 0 c-35 0 -45 4 -50 21 -7 19 -7
20 -21 2 -7 -10 -14 -30 -14 -45 0 -18 -5 -28 -15 -28 -10 0 -15 10 -15 30 0
25 -4 30 -25 30 -25 0 -25 1 -25 80 0 47 -4 80 -10 80 -5 0 -10 9 -10 21 0 36
-34 19 -38 -19 -2 -17 -7 -32 -12 -32 -5 0 -11 -44 -12 -97 -3 -93 -4 -98 -26
-101 -21 -3 -22 -1 -22 75 0 91 -7 106 -46 101 -29 -3 -29 -3 -34 -88 -5 -77
-7 -85 -25 -85 -18 0 -20 8 -23 78 -2 42 -7 77 -12 77 -6 0 -10 15 -10 34 0
25 -5 35 -20 39 -14 4 -20 0 -20 -12 0 -9 -4 -21 -9 -27 -6 -5 -11 -40 -13
-79 -2 -56 -6 -70 -20 -73 -14 -3 -17 6 -20 50 -3 46 -6 53 -25 56 -12 2 -27
10 -33 18 -7 8 -25 14 -41 14 -15 0 -32 7 -37 16 -8 14 -11 14 -26 -7 -12 -17
-16 -46 -16 -107 l0 -84 -37 32 c-70 62 -159 78 -231 41 -59 -31 -120 -100
-124 -141 l-3 -35 -60 -1 -60 -1 55 6 c54 6 55 7 60 41 6 41 29 73 85 117 83
64 167 67 255 8 l50 -34 0 69 c0 78 12 120 35 120 16 0 25 -4 92 -38 23 -12
49 -22 57 -22 11 0 16 -14 19 -52 3 -46 4 -44 5 19 1 39 7 75 12 78 6 3 10 19
10 36 0 16 5 29 10 29 6 0 10 -4 10 -8 0 -5 12 -12 26 -18 32 -11 53 -76 54
-166 0 -32 5 -58 10 -58 6 0 10 33 10 78 0 85 8 102 50 102 42 0 50 -17 50
-102 0 -45 4 -78 10 -78 6 0 10 38 10 95 0 57 4 95 10 95 6 0 10 14 10 31 0
24 6 32 30 40 17 6 30 15 30 21 0 5 5 6 10 3 6 -3 10 -19 10 -35 0 -16 5 -32
10 -35 6 -3 10 -39 10 -80 0 -69 1 -74 23 -77 14 -2 30 6 43 21 l21 25 18 -27
c24 -38 57 -35 73 6 41 100 43 103 57 83 8 -10 22 -40 31 -67 21 -58 51 -66
79 -23 l17 26 21 -20 c11 -12 24 -40 28 -64 l6 -43 2 55 c1 30 4 65 7 78 7 25
24 30 24 7 0 -26 39 -18 46 10 3 14 10 25 14 25 4 0 11 -11 14 -25 7 -28 33
-34 43 -9 10 27 32 -24 33 -73 0 -75 19 -46 22 35 3 72 5 77 26 80 12 2 28 12
35 23 15 24 29 24 44 0 7 -11 23 -21 35 -23 21 -3 23 -9 29 -78 l5 -75 3 65
c1 39 8 73 16 84 8 11 15 28 15 38 0 10 6 18 14 18 13 0 29 43 25 66 -1 5 -1
18 0 29 1 17 3 17 11 5 5 -8 7 -24 4 -35z"/>
</g>
</svg>
