<?xml version="1.0" standalone="no"?>
<!DOCTYPE svg PUBLIC "-//W3C//DTD SVG 20010904//EN"
 "http://www.w3.org/TR/2001/REC-SVG-20010904/DTD/svg10.dtd">
<svg version="1.0" xmlns="http://www.w3.org/2000/svg"
 width="300.000000pt" height="104.000000pt" viewBox="0 0 300.000000 104.000000"
 preserveAspectRatio="xMidYMid meet">
<metadata>
Created by potrace 1.10, written by Peter Selinger 2001-2011
</metadata>
<g transform="translate(0.000000,104.000000) scale(0.100000,-0.100000)"
fill="#FFFFFF" stroke="none">
<path d="M1997 728 l33 -32 0 -173 c0 -161 1 -173 18 -173 27 0 32 9 21 37 -13 34 5 87
38 113 32 25 99 27 132 4 33 -23 53 -77 45 -120 -6 -33 -5 -35 17 -32 21 3 24
8 22 46 -1 24 -11 68 -22 98 -28 73 -28 114 0 114 23 0 60 -18 71 -34 4 -6 8
-25 8 -42 0 -19 6 -34 14 -37 10 -4 16 -25 18 -64 3 -51 6 -58 26 -61 22 -3
22 -3 22 147 0 131 2 150 15 144 9 -3 22 -21 30 -40 13 -30 17 -33 35 -23 11
6 24 8 29 5 5 -3 12 -64 16 -135 7 -115 15 -153 31 -137 3 2 8 43 11 91 3 47
9 86 13 86 4 0 12 12 19 27 12 27 13 27 27 8 7 -11 17 -25 23 -31 5 -6 13 -64
17 -130 l9 -119 50 -6 50 -6 -46 -1 c-27 -1 -51 3 -56 10 -6 7 -14 62 -18 123
-3 60 -10 112 -14 115 -4 3 -12 14 -18 24 -10 19 -11 18 -17 -2 -4 -12 -12
-22 -17 -22 -5 0 -9 -17 -9 -37 0 -21 -3 -62 -7 -91 -5 -47 -8 -53 -27 -50
-20 3 -22 11 -29 128 -9 142 -12 159 -29 142 -21 -21 -37 -13 -55 26 l-18 37
-5 -145 c-5 -144 -5 -145 -29 -148 -31 -5 -41 12 -41 71 0 33 -5 49 -15 53
-10 4 -15 20 -15 45 0 40 -26 69 -62 69 -25 0 -23 -29 8 -118 14 -40 24 -88
22 -105 -3 -29 -6 -32 -40 -35 -40 -3 -46 5 -27 40 15 28 -4 92 -34 113 -36
25 -100 19 -131 -11 -31 -31 -36 -60 -21 -116 7 -27 6 -28 -29 -28 l-36 0 0
177 c0 168 -1 178 -22 200 -12 13 -25 23 -30 23 -4 0 -8 -79 -8 -175 l0 -175
-25 0 -25 0 0 130 0 130 -25 0 c-22 0 -25 -4 -25 -35 0 -28 -4 -35 -19 -35
-11 0 -23 5 -26 10 -3 6 -15 10 -26 10 -20 0 -24 -22 -20 -102 4 -55 -6 -78
-35 -78 -24 0 -24 2 -24 85 0 66 -3 85 -14 85 -7 0 -21 10 -29 23 -15 20 -16
12 -16 -120 l-1 -143 -30 0 -30 0 1 98 c2 207 2 214 -23 210 -22 -3 -23 -7
-25 -123 -1 -66 -2 -130 -3 -142 0 -16 -6 -23 -20 -23 -18 0 -20 7 -20 88 0
122 -5 126 -165 126 -159 0 -165 -5 -165 -121 0 -74 -2 -83 -19 -83 -17 0 -19
12 -23 138 -6 148 -12 175 -37 170 -14 -3 -16 -25 -19 -166 l-2 -162 -30 0
-30 0 0 135 0 135 -24 0 c-22 0 -26 -6 -30 -42 -4 -24 -7 -72 -9 -108 -2 -59
-4 -65 -24 -68 -23 -3 -23 -2 -23 123 0 127 0 127 -29 156 -16 16 -34 29 -40
29 -7 0 -11 -52 -11 -160 l0 -160 -25 0 -25 0 0 130 0 130 -45 0 -45 0 0 -145
c0 -137 -1 -145 -19 -145 -12 0 -21 8 -24 23 -4 20 -4 20 -6 -4 -1 -25 -2 -26
-36 -15 -22 7 -35 17 -35 28 0 26 -21 33 -27 9 -7 -29 -35 -23 -43 9 -8 32
-32 32 -40 0 -7 -28 -40 -41 -40 -16 0 9 -7 16 -15 16 -8 0 -15 -8 -15 -18 0
-11 -12 -21 -35 -28 -34 -11 -35 -10 -37 15 -1 14 -4 -10 -7 -54 l-6 -80 -55
-1 -55 -1 50 6 50 6 5 147 c3 80 8 150 12 154 5 4 9 -8 10 -27 0 -19 2 -38 3
-44 2 -5 3 -32 4 -59 1 -40 3 -47 15 -37 11 9 16 9 21 0 5 -7 13 0 22 20 12
24 18 28 27 18 7 -7 15 -19 18 -27 4 -12 7 -11 13 5 12 36 22 50 35 50 13 0
23 -15 35 -50 7 -20 7 -20 15 1 14 35 27 36 43 3 9 -20 17 -27 22 -20 5 9 10
9 21 0 12 -10 14 -2 14 49 0 33 3 75 7 93 7 33 7 33 14 9 4 -14 7 -58 8 -97 1
-42 5 -73 11 -73 6 0 10 55 10 145 l0 145 55 0 55 0 0 -130 c0 -109 2 -130 15
-130 13 0 15 24 15 160 0 95 4 160 10 160 5 0 21 -5 35 -12 45 -20 55 -55 55
-183 0 -89 3 -116 13 -113 7 3 13 26 14 59 6 124 13 157 36 163 41 10 47 -8
47 -145 0 -122 1 -129 20 -129 19 0 20 7 20 160 l0 160 25 6 c14 4 28 4 30 2
12 -12 25 -121 25 -209 0 -59 4 -99 10 -99 6 0 10 34 10 83 0 118 5 121 175
121 171 0 175 -2 175 -126 0 -50 4 -88 10 -88 5 0 11 59 12 143 l3 142 32 3
31 3 7 -77 c4 -43 5 -113 2 -156 -6 -73 -5 -78 13 -78 19 0 20 8 22 178 0 97
3 161 5 142 5 -40 38 -81 59 -73 11 4 14 -12 14 -86 0 -74 3 -91 15 -91 12 0
15 14 15 68 0 95 6 112 41 112 15 0 31 -5 34 -10 11 -18 25 0 25 31 0 27 3 29
35 29 l35 0 0 -130 c0 -109 2 -130 15 -130 13 0 15 27 15 180 0 99 3 180 7
180 4 0 22 -14 40 -32z m-693 -265 c-3 -54 -7 -104 -10 -110 -2 -7 -17 -13
-34 -13 l-31 0 3 103 c2 56 8 105 13 109 6 4 22 8 37 8 l27 0 -5 -97z m121 89
c6 -4 11 -53 13 -109 l3 -103 -31 0 c-17 0 -32 6 -34 13 -3 6 -7 56 -10 110
l-6 97 27 0 c16 0 33 -4 38 -8z m435 -93 c0 -90 -2 -100 -17 -97 -15 3 -18 17
-21 101 -3 92 -2 97 18 97 19 0 20 -6 20 -101z"/>
<path d="M1257 543 c-2 -4 -8 -50 -11 -100 -7 -89 -7 -93 13 -93 11 0 22 3 24
8 3 4 7 48 8 97 3 77 1 90 -13 93 -9 2 -18 -1 -21 -5z"/>
<path d="M1377 543 c-2 -5 -1 -48 2 -98 6 -85 7 -90 29 -93 l24 -4 -7 94 c-8
102 -10 108 -30 108 -8 0 -16 -3 -18 -7z"/>
<path d="M1838 469 c-2 -45 0 -86 4 -93 4 -6 8 31 8 82 0 50 -2 92 -4 92 -3 0
-6 -36 -8 -81z"/>
</g>
</svg>
