<?xml version="1.0" standalone="no"?>
<!DOCTYPE svg PUBLIC "-//W3C//DTD SVG 20010904//EN"
 "http://www.w3.org/TR/2001/REC-SVG-20010904/DTD/svg10.dtd">
<svg version="1.0" xmlns="http://www.w3.org/2000/svg"
 width="300.000000pt" height="99.000000pt" viewBox="0 0 300.000000 99.000000"
 preserveAspectRatio="xMidYMid meet">
<metadata>
Created by potrace 1.10, written by Peter Selinger 2001-2011
</metadata>
<g transform="translate(0.000000,99.000000) scale(0.100000,-0.100000)"
fill="#FFFFFF" stroke="none">
<path d="M1170 574 c0 -180 4 -213 26 -213 11 0 14 20 14 89 0 70 3 90 15 95 8 3 15 12
15 21 0 21 5 19 35 -10 23 -24 25 -33 25 -110 0 -78 2 -85 20 -85 19 0 20 7
20 98 0 70 4 103 15 119 8 12 19 39 24 60 l9 38 1 -36 c1 -19 7 -41 14 -47 7
-8 14 -51 17 -105 3 -51 9 -92 15 -92 6 0 11 35 13 79 3 70 6 82 28 103 37 34
106 32 139 -3 22 -24 25 -36 25 -110 0 -67 3 -84 15 -84 11 0 15 18 17 83 l3
82 40 0 40 0 5 -94 c3 -63 9 -96 18 -99 9 -3 12 31 12 148 0 151 7 190 36 190
25 0 34 -47 34 -181 0 -79 4 -129 10 -129 6 0 10 43 10 108 0 60 2 111 5 114
3 2 18 3 35 0 l30 -4 0 -129 c0 -79 4 -129 10 -129 6 0 10 27 10 61 l0 60 43
-3 42 -3 3 -47 c2 -27 7 -48 13 -48 5 0 9 47 9 108 0 80 4 113 15 128 8 10 15
31 15 47 0 15 5 27 10 27 6 0 10 -12 10 -27 0 -16 7 -37 15 -47 11 -14 15 -47
15 -118 0 -80 3 -98 15 -98 12 0 15 14 15 64 0 35 3 78 6 95 6 30 9 32 43 29
23 -2 36 -8 37 -18 1 -8 2 -59 2 -112 2 -80 5 -98 17 -98 12 0 15 15 15 73 0
61 3 74 20 85 17 10 20 23 20 91 0 70 2 79 20 84 17 4 20 0 20 -28 0 -19 5
-37 10 -40 6 -4 10 -62 10 -141 0 -115 2 -134 16 -134 8 0 12 5 9 10 -3 6 3
22 14 36 12 15 21 40 21 55 0 19 5 29 14 29 9 0 16 12 18 28 2 19 9 27 23 27
14 0 21 -8 23 -27 2 -16 7 -28 13 -28 5 0 14 -20 20 -45 6 -25 15 -45 20 -45
5 0 9 -11 9 -25 0 -49 17 -24 23 35 6 54 23 100 37 100 17 0 31 -53 37 -138 3
-53 11 -101 17 -105 7 -6 6 -7 -4 -4 -11 3 -18 30 -26 106 -6 56 -14 104 -17
107 -13 14 -27 -10 -27 -46 0 -21 -4 -50 -10 -64 -11 -30 -40 -35 -40 -7 0 10
-7 32 -15 47 -8 16 -15 37 -15 46 0 10 -8 22 -19 27 -13 7 -17 18 -14 36 4 19
1 25 -12 25 -13 0 -16 -6 -12 -25 3 -18 -1 -29 -14 -36 -11 -5 -19 -17 -19
-27 0 -9 -7 -30 -15 -46 -8 -15 -15 -35 -15 -42 0 -8 -10 -14 -25 -14 l-25 0
0 140 c0 129 -1 140 -20 150 -19 10 -20 8 -20 -49 0 -50 -3 -62 -20 -71 -17
-9 -20 -21 -20 -85 0 -73 -1 -75 -25 -75 -25 0 -25 1 -25 84 0 117 -7 146 -35
146 -27 0 -35 -30 -35 -126 0 -62 -1 -64 -25 -64 -25 0 -25 0 -25 95 0 85 -12
145 -30 145 -18 0 -30 -61 -30 -155 0 -97 -1 -105 -19 -105 -17 0 -20 8 -23
48 -3 45 -4 47 -35 50 l-33 3 0 -60 c0 -54 -2 -61 -20 -61 -19 0 -20 7 -20
130 l0 130 -25 0 -25 0 0 -110 c0 -103 -1 -110 -20 -110 -19 0 -20 7 -20 133
0 142 -5 177 -25 177 -20 0 -25 -35 -25 -193 0 -148 0 -148 -22 -145 -22 3
-23 9 -28 98 l-5 95 -30 0 -30 0 -3 -82 c-3 -81 -3 -83 -27 -83 -25 0 -25 1
-25 86 0 80 -2 89 -26 110 -30 28 -98 34 -108 9 -3 -8 -12 -15 -20 -15 -12 0
-16 -18 -18 -87 -3 -80 -5 -88 -23 -88 -18 0 -20 8 -25 95 -6 105 -13 128 -36
109 -11 -9 -14 -39 -14 -125 l0 -114 -37 0 -38 0 3 89 c4 94 -2 106 -47 94
-19 -5 -21 -12 -21 -88 0 -57 4 -85 13 -88 6 -3 -5 -6 -25 -6 -21 -1 -39 0
-40 2 -1 1 -4 85 -7 187 -5 155 -8 185 -21 185 -13 0 -16 -29 -21 -175 -3 -96
-6 -176 -7 -177 -1 -2 -15 -3 -32 -3 l-30 0 0 81 c0 78 -1 80 -22 77 -22 -3
-23 -8 -26 -106 l-3 -103 -27 3 -27 3 -3 101 c-2 92 -5 102 -22 107 -19 5 -20
0 -20 -79 0 -83 0 -84 -25 -84 -22 0 -25 4 -25 34 0 50 -23 68 -79 64 l-46 -3
-3 93 c-1 50 -5 92 -8 92 -3 0 -14 -5 -25 -10 -17 -10 -19 -22 -19 -140 l0
-130 -30 0 -29 0 -3 123 c-3 118 -4 122 -25 125 l-23 3 0 -155 0 -156 -25 0
c-16 0 -25 6 -25 15 0 8 -6 15 -14 15 -18 0 -29 42 -14 51 8 5 3 12 -14 19
-20 9 -31 9 -48 0 -16 -9 -19 -14 -10 -20 9 -6 9 -9 0 -15 -6 -4 -9 -13 -6
-21 3 -8 -1 -14 -9 -14 -8 0 -15 -7 -15 -16 0 -10 -7 -14 -22 -12 -21 3 -23 9
-26 68 -1 36 -5 76 -9 90 l-6 25 -7 -30 c-4 -16 -8 -76 -9 -132 0 -57 -4 -103
-8 -103 -9 0 2 230 13 274 l7 28 13 -32 c8 -18 14 -63 14 -99 0 -37 3 -70 6
-74 3 -3 15 4 26 15 14 14 18 27 14 44 -4 13 -3 24 2 24 4 0 18 9 30 20 18 17
25 19 42 8 11 -7 20 -16 20 -20 0 -5 7 -8 15 -8 12 0 13 -4 5 -19 -14 -27 -13
-41 4 -41 8 0 16 -7 20 -15 3 -8 10 -15 16 -15 6 0 10 55 10 155 l0 155 35 0
35 0 0 -125 c0 -118 1 -125 20 -125 19 0 20 7 20 122 0 129 10 158 52 158 16
0 18 -9 18 -88 l0 -88 41 -1 c59 -3 89 -25 89 -68 0 -24 5 -35 15 -35 12 0 15
16 15 86 0 74 2 85 16 80 9 -3 22 -6 29 -6 11 0 15 -23 17 -102 3 -89 5 -103
21 -106 15 -3 17 7 17 101 l0 105 27 5 c16 3 31 3 35 0 5 -2 8 -40 8 -84 0
-71 2 -79 19 -79 10 0 22 7 25 16 3 9 6 90 6 180 l0 164 30 0 30 0 0 -167z
m398 -185 c-3 -57 -5 -63 -25 -66 -22 -3 -23 0 -23 62 0 64 1 66 25 66 25 0
26 -1 23 -62z"/>
<path d="M1530 385 c0 -42 3 -55 15 -55 12 0 15 13 15 55 0 42 -3 55 -15 55
-12 0 -15 -13 -15 -55z"/>
</g>
</svg>
