<?xml version="1.0" standalone="no"?>
<!DOCTYPE svg PUBLIC "-//W3C//DTD SVG 20010904//EN"
 "http://www.w3.org/TR/2001/REC-SVG-20010904/DTD/svg10.dtd">
<svg version="1.0" xmlns="http://www.w3.org/2000/svg"
 width="300.000000pt" height="100.000000pt" viewBox="0 0 300.000000 100.000000"
 preserveAspectRatio="xMidYMid meet">
<metadata>
Created by potrace 1.10, written by Peter Selinger 2001-2011
</metadata>
<g transform="translate(0.000000,100.000000) scale(0.100000,-0.100000)"
fill="#FFFFFF" stroke="none">
<path d="M1528 665 l-2 -70 -6 70 -6 70 -4 -85 c-4 -79 -4 -81 -8 -25 -4 77 7 159 19
130 4 -11 7 -51 7 -90z m-439 -76 c1 -14 10 -34 20 -43 17 -16 20 -34 23 -142
2 -68 0 -124 -4 -124 -5 0 -8 56 -8 124 0 99 -3 125 -15 129 -8 4 -18 20 -22
37 -13 48 -28 40 -31 -17 -2 -29 -7 -53 -13 -53 -5 0 -9 -47 -9 -110 0 -60 -3
-110 -7 -110 -5 0 -7 52 -5 115 2 63 7 115 13 115 5 0 9 18 9 39 0 48 31 110
42 83 4 -9 7 -29 7 -43z m-242 -13 c-3 -8 -1 -17 6 -20 9 -5 9 -7 -1 -12 -6
-3 -9 -11 -5 -17 4 -7 6 -46 4 -88 -2 -47 2 -79 8 -83 6 -4 11 -18 11 -31 0
-13 4 -26 9 -29 5 -3 12 29 16 72 11 132 41 202 86 202 18 0 19 -8 17 -147
l-2 -148 -3 143 c-3 128 -5 143 -20 140 -33 -6 -54 -64 -66 -173 -9 -87 -14
-105 -26 -103 -9 2 -18 14 -19 28 -2 14 -8 30 -14 37 -5 6 -8 46 -7 87 1 42
-1 79 -4 83 -4 3 -7 -32 -7 -78 0 -47 -4 -89 -9 -94 -5 -6 -11 -21 -13 -35 -2
-14 -11 -26 -20 -28 -14 -3 -18 3 -18 27 0 26 -4 31 -25 31 -22 0 -25 4 -25
39 0 39 -12 53 -37 43 -8 -2 -13 -21 -13 -43 0 -37 -2 -39 -30 -39 -27 0 -30
-3 -30 -30 0 -23 -4 -30 -20 -30 -17 0 -20 7 -20 40 0 33 -3 40 -20 40 -11 0
-20 4 -20 9 0 5 -9 11 -20 14 -13 3 -20 14 -20 29 0 22 -34 88 -45 88 -11 0
-45 -66 -45 -88 0 -15 -7 -26 -20 -29 -11 -3 -20 -9 -20 -14 0 -5 -9 -9 -20
-9 -17 0 -19 -8 -22 -67 l-3 -68 -55 -1 -55 -1 50 6 50 6 3 68 c3 59 5 67 22
67 11 0 20 5 20 10 0 6 9 10 20 10 12 0 20 7 20 18 0 9 12 43 27 74 l27 56 28
-54 c15 -30 28 -63 28 -74 0 -13 7 -20 20 -20 11 0 20 -4 20 -10 0 -5 9 -10
20 -10 17 0 20 -7 20 -40 0 -22 5 -40 11 -40 6 0 9 12 7 28 -3 24 1 27 30 30
34 3 39 11 21 29 -8 8 -7 17 5 34 14 21 14 24 0 40 -9 10 -13 23 -9 30 6 8 13
5 26 -12 l18 -24 24 23 c19 18 27 20 33 11 5 -8 -1 -18 -15 -27 l-22 -15 22
-24 c18 -18 20 -26 11 -35 -19 -19 -14 -26 16 -30 23 -3 27 -7 24 -32 -3 -18
0 -26 7 -22 6 4 11 18 11 31 0 13 5 27 11 31 7 4 10 36 8 85 -2 43 0 81 3 85
4 3 4 19 1 35 -4 23 -2 29 12 29 11 0 15 -5 12 -14z m703 -107 c14 -75 68
-188 81 -168 7 11 9 11 9 -3 0 -36 -26 -17 -54 38 -37 72 -56 147 -54 209 1
37 2 41 5 15 1 -19 8 -60 13 -91z m-60 -18 c-15 -58 -68 -171 -81 -171 -5 0 2
17 16 37 14 21 25 43 25 49 0 6 7 24 15 41 8 17 18 59 22 94 6 48 9 56 11 30
2 -19 -2 -55 -8 -80z m420 10 c0 -87 9 -171 19 -171 3 0 37 28 75 62 l69 62
59 -63 c32 -35 60 -62 62 -60 2 2 7 51 10 108 4 57 9 107 11 111 3 5 17 5 33
1 21 -6 28 -14 30 -39 4 -36 22 -44 22 -9 0 12 4 27 8 33 10 15 51 24 58 13 9
-15 20 -229 12 -229 -5 0 -8 29 -8 64 0 35 -3 84 -6 110 -6 40 -10 47 -28 44
-16 -2 -22 -11 -24 -36 -5 -45 -36 -41 -40 6 -3 26 -8 32 -27 32 -23 0 -24 -3
-30 -110 -6 -80 -11 -110 -20 -110 -8 0 -38 28 -69 62 l-56 63 -63 -63 c-72
-71 -97 -79 -97 -29 0 17 -5 39 -10 47 -7 11 -10 2 -10 -32 0 -29 -5 -48 -11
-48 -7 0 -9 13 -5 38 3 20 9 81 12 134 8 115 24 121 24 9z m-140 46 c0 -12 7
-31 15 -41 8 -11 15 -29 15 -40 1 -19 2 -19 15 4 11 19 14 21 15 7 0 -9 5 -27
12 -40 29 -56 30 -59 17 -55 -8 3 -16 15 -19 28 -6 27 -30 40 -30 16 0 -32
-16 -15 -17 18 -1 19 -9 48 -19 65 l-18 30 -18 -27 c-10 -15 -18 -44 -18 -64
0 -21 -4 -38 -10 -38 -5 0 -10 7 -10 16 0 23 -24 11 -28 -14 -3 -22 -32 -53
-32 -34 0 6 4 12 8 14 4 2 15 26 24 53 15 48 17 49 26 25 9 -22 11 -22 11 -5
1 11 7 29 15 40 7 11 16 33 20 48 7 31 26 27 26 -6z m-390 -26 c5 -11 9 -62 8
-113 l-2 -93 -5 97 c-3 53 -10 100 -14 104 -9 10 -172 8 -187 -1 -6 -3 -10
-48 -10 -101 0 -52 -3 -94 -7 -94 -7 0 -8 179 -2 188 1 1 3 7 4 12 1 6 3 12 4
15 0 3 46 5 101 5 88 0 100 -2 110 -19z m1226 -40 c31 -14 29 -14 50 6 13 13
19 14 22 5 2 -7 11 -19 19 -28 9 -8 17 -36 19 -62 l3 -47 -9 44 c-11 53 -11
53 -50 57 -17 2 -44 11 -61 20 -29 15 -34 15 -70 -1 -21 -10 -47 -18 -58 -19
-30 -2 -50 -35 -51 -83 0 -23 -3 -44 -7 -46 -8 -5 -5 77 3 103 3 8 5 16 4 18
0 1 6 9 14 17 8 8 16 20 18 27 3 9 9 8 22 -5 21 -20 19 -20 50 -5 14 6 29 20
32 32 l7 21 9 -21 c6 -12 21 -27 34 -33z m-1076 -10 c0 -11 3 -26 6 -35 4 -12
0 -16 -15 -16 -12 0 -21 5 -21 11 0 5 5 7 10 4 6 -4 10 6 10 22 0 22 -2 25
-10 13 -5 -8 -10 -10 -10 -4 0 6 3 14 7 17 12 13 23 7 23 -12z m-232 -23 c7
-7 12 -38 12 -70 0 -49 -3 -58 -17 -58 -14 0 -15 2 -5 9 9 5 12 25 10 62 -2
43 -7 55 -22 57 -10 2 -22 -2 -27 -10 -5 -7 -9 -8 -9 -2 0 25 37 33 58 12z
m266 -80 c18 -25 21 -48 6 -48 -5 0 -7 6 -4 14 7 19 -23 46 -51 46 -24 0 -58
-36 -49 -52 3 -4 0 -8 -6 -8 -15 0 -2 42 18 58 25 20 69 15 86 -10z m-309 -46
c-3 -3 -11 0 -18 7 -9 10 -8 11 6 5 10 -3 15 -9 12 -12z m262 2 c-3 -3 -12 -4
-19 -1 -8 3 -5 6 6 6 11 1 17 -2 13 -5z m1261 -57 l47 -3 -52 -2 -53 -2 2 38
c1 36 1 36 5 5 4 -30 7 -32 51 -36z"/>
</g>
</svg>
