<?xml version="1.0" standalone="no"?>
<!DOCTYPE svg PUBLIC "-//W3C//DTD SVG 20010904//EN"
 "http://www.w3.org/TR/2001/REC-SVG-20010904/DTD/svg10.dtd">
<svg version="1.0" xmlns="http://www.w3.org/2000/svg"
 width="300.000000pt" height="102.000000pt" viewBox="0 0 300.000000 102.000000"
 preserveAspectRatio="xMidYMid meet">
<metadata>
Created by potrace 1.10, written by Peter Selinger 2001-2011
</metadata>
<g transform="translate(0.000000,102.000000) scale(0.100000,-0.100000)"
fill="#FFFFFF" stroke="none">
<path d="M778 654 c14 -10 14 -17 3 -50 -16 -51 -11 -226 7 -232 9 -3 12 15 12 66 0 46
6 80 17 103 17 32 18 33 21 10 3 -18 6 -21 12 -11 7 11 11 11 24 1 14 -12 16
-10 17 10 2 24 2 24 6 2 2 -13 8 -23 13 -23 5 0 10 -26 12 -57 2 -43 7 -58 18
-58 12 0 14 14 12 76 -3 72 -2 77 22 92 35 23 53 21 81 -8 23 -22 25 -32 25
-110 0 -77 2 -86 18 -83 18 4 20 19 21 226 l1 102 90 0 90 0 0 -135 c0 -128 1
-135 20 -135 19 0 20 7 20 98 0 63 -4 102 -12 110 -9 9 7 12 75 12 51 0 87 -4
87 -10 0 -5 -5 -10 -10 -10 -16 0 -8 -252 8 -258 9 -3 12 17 12 77 l0 81 30 0
c17 0 30 5 30 10 0 6 20 10 45 10 56 0 65 -15 65 -105 0 -58 2 -66 18 -63 14
3 17 17 20 100 l3 97 37 11 c20 5 52 10 70 10 30 0 32 2 32 36 0 21 4 33 10
29 6 -3 10 -19 10 -35 0 -26 5 -31 40 -40 l40 -11 0 -84 c0 -47 2 -85 4 -85
12 0 215 101 220 109 4 6 25 -8 49 -32 41 -41 42 -42 45 -17 2 14 10 29 18 33
8 4 14 19 14 32 0 20 5 25 25 25 23 0 25 3 25 50 0 43 3 50 20 50 11 0 20 -7
20 -15 0 -9 9 -15 25 -15 l25 0 0 -135 c0 -113 2 -135 15 -135 12 0 15 14 15
70 l0 70 70 0 70 0 0 -80 c0 -64 3 -80 15 -80 12 0 15 13 15 60 0 47 4 64 20
80 20 20 20 20 42 -2 12 -12 22 -33 23 -47 1 -14 2 -63 3 -108 l2 -82 53 -4
c50 -4 50 -4 -8 -3 l-60 1 -3 112 c-2 91 -6 112 -19 117 -29 11 -43 -13 -43
-75 0 -59 0 -59 -30 -59 l-30 0 0 80 0 80 -50 0 -49 0 -3 -67 -3 -68 -32 -3
-33 -3 0 129 c0 130 0 130 -24 134 -22 5 -25 1 -28 -31 -3 -31 -7 -36 -30 -39
-22 -3 -28 -9 -28 -28 0 -13 -4 -24 -10 -24 -5 0 -10 -16 -10 -35 0 -45 -14
-45 -65 4 l-40 40 -114 -55 c-63 -30 -118 -54 -122 -54 -5 0 -9 40 -9 89 0
104 3 101 -110 101 -115 0 -110 5 -110 -112 l0 -99 -32 3 -33 3 -3 75 c-2 44
-8 78 -15 82 -21 14 -57 9 -57 -8 0 -11 -8 -14 -32 -12 l-33 3 -3 -77 c-3 -75
-4 -78 -27 -78 l-25 0 0 123 c0 135 -5 147 -55 147 -48 0 -55 -14 -55 -117 l0
-93 -30 0 -30 0 0 130 0 129 -34 6 c-19 4 -51 4 -73 1 -21 -3 -41 -5 -45 -6
-5 0 -8 -72 -8 -160 l0 -160 -35 0 -34 0 -3 97 c-3 92 -4 98 -28 110 -21 10
-27 9 -42 -7 -14 -15 -18 -36 -18 -95 l0 -75 -30 0 c-30 0 -30 1 -30 54 0 49
-2 55 -22 58 -13 2 -33 2 -45 0 -21 -4 -23 -9 -23 -77 0 -69 -1 -73 -25 -77
-32 -7 -35 -3 -36 51 l-2 46 -9 -58 c-9 -51 -13 -57 -34 -57 -24 0 -24 2 -24
94 0 71 -3 95 -14 99 -14 6 -104 -14 -125 -27 -6 -4 -11 -37 -11 -77 0 -67 -1
-69 -25 -69 -19 0 -25 5 -25 22 0 12 -7 29 -15 38 -9 10 -18 41 -22 69 -8 71
-19 72 -26 3 -4 -34 -12 -61 -22 -68 -9 -7 -15 -26 -15 -48 0 -31 -3 -36 -24
-36 -19 0 -24 6 -30 37 -3 21 -6 53 -6 71 0 17 -4 32 -10 32 -5 0 -10 -12 -10
-27 0 -16 -5 -70 -12 -120 l-12 -93 -56 2 -55 2 52 3 51 4 6 97 c7 102 24 202
36 202 9 0 30 -94 33 -149 3 -54 27 -70 27 -18 0 19 7 48 15 63 8 16 15 46 15
66 0 36 17 88 29 88 12 0 31 -55 31 -89 0 -20 7 -49 15 -65 8 -15 15 -37 15
-47 0 -11 7 -19 15 -19 12 0 15 14 15 64 0 39 5 67 13 73 18 15 134 41 146 34
5 -4 11 -49 13 -101 2 -55 7 -95 13 -95 15 0 18 203 4 249 -11 34 -11 40 4 51
10 7 17 26 17 47 0 51 14 57 18 7 2 -25 10 -48 20 -55z m1403 -177 c-1 -4 -1
-32 -1 -62 0 -34 -4 -55 -11 -55 -8 0 -10 16 -5 50 4 28 3 50 -2 50 -5 0 -56
-22 -113 -49 -57 -27 -106 -47 -108 -45 -7 6 -4 8 114 67 104 53 127 61 126
44z m379 -77 c0 -73 -2 -80 -20 -80 -18 0 -20 7 -20 80 0 73 2 80 20 80 18 0
20 -7 20 -80z m-1934 -11 c2 -62 0 -69 -17 -69 -17 0 -19 8 -19 69 0 46 4 71
13 74 19 7 22 -1 23 -74z m1624 45 c49 -44 45 -58 -5 -20 l-35 27 0 -40 c0
-23 -4 -41 -10 -41 -5 0 -10 25 -10 55 0 30 4 55 10 55 5 0 28 -16 50 -36z"/>
<path d="M2363 643 c4 -3 10 -3 14 0 3 4 0 7 -7 7 -7 0 -10 -3 -7 -7z"/>
<path d="M736 622 c-2 -4 0 -14 5 -22 8 -13 10 -13 18 0 10 15 6 30 -9 30 -5
0 -11 -4 -14 -8z"/>
<path d="M600 340 c0 -7 3 -10 7 -7 3 4 3 10 0 14 -4 3 -7 0 -7 -7z"/>
</g>
</svg>
