<?xml version="1.0" standalone="no"?>
<!DOCTYPE svg PUBLIC "-//W3C//DTD SVG 20010904//EN"
 "http://www.w3.org/TR/2001/REC-SVG-20010904/DTD/svg10.dtd">
<svg version="1.0" xmlns="http://www.w3.org/2000/svg"
 width="300.000000pt" height="103.000000pt" viewBox="0 0 300.000000 103.000000"
 preserveAspectRatio="xMidYMid meet">
<metadata>
Created by potrace 1.10, written by Peter Selinger 2001-2011
</metadata>
<g transform="translate(0.000000,103.000000) scale(0.100000,-0.100000)"
fill="#FFFFFF" stroke="none">
<path d="M1480 553 c0 -71 1 -73 25 -73 24 0 25 2 25 78 1 91 33 235 43 186 3 -16 10
-47 16 -69 6 -22 11 -106 11 -187 0 -92 4 -148 10 -148 6 0 10 45 10 114 0 63
3 121 6 130 10 27 52 19 68 -12 8 -16 22 -34 30 -41 13 -11 16 -35 16 -112 0
-73 3 -99 13 -99 9 0 12 31 13 118 1 129 14 175 51 180 15 2 23 12 26 30 2 15
5 -51 6 -145 1 -147 3 -173 16 -173 12 0 15 18 15 98 0 102 8 123 40 115 26
-7 31 -24 37 -130 3 -51 9 -93 13 -93 14 0 20 45 20 151 0 82 3 109 15 119 8
7 15 21 15 31 0 14 7 19 25 19 20 0 25 -5 25 -24 0 -14 5 -28 10 -31 6 -3 10
-51 10 -108 0 -113 6 -147 25 -147 24 0 35 214 13 249 -9 15 -9 25 0 46 7 14
12 46 12 70 0 25 4 45 9 45 13 0 22 -102 21 -244 -1 -85 2 -131 9 -136 6 -3
25 -4 41 -2 36 5 38 12 44 140 2 52 7 96 10 99 13 14 19 -12 23 -109 3 -57 9
-107 14 -112 6 -6 9 -6 9 2 0 12 98 112 109 112 3 0 32 -27 64 -59 31 -32 58
-53 59 -47 1 11 4 72 7 151 1 40 15 74 25 64 3 -3 9 -55 12 -115 3 -60 10
-113 14 -117 4 -4 23 -9 43 -10 47 -3 55 -12 59 -67 l3 -45 50 -6 50 -6 -55 1
-55 1 -8 50 -8 51 -46 2 c-25 1 -48 4 -51 6 -2 3 -7 38 -11 78 l-6 73 -5 -70
c-4 -56 -8 -70 -23 -73 -10 -2 -20 4 -24 15 -9 27 -76 93 -93 93 -18 0 -84
-66 -94 -93 -3 -11 -13 -17 -23 -15 -15 3 -19 16 -21 66 -2 34 -6 62 -10 62
-4 0 -8 -30 -10 -67 -2 -37 -5 -69 -6 -71 -2 -1 -29 -4 -60 -5 -31 -1 -56 -5
-56 -9 0 -15 -58 -8 -64 8 -3 9 -6 64 -6 124 0 81 -3 110 -14 120 -8 6 -16 21
-18 33 -3 19 -5 18 -21 -12 -13 -26 -17 -59 -17 -133 0 -111 -17 -172 -47
-166 -15 3 -19 18 -23 105 -5 96 -18 138 -37 119 -5 -4 -7 -52 -6 -107 l1 -99
-34 0 -35 0 1 118 c2 171 2 164 -17 160 -23 -4 -32 -55 -32 -190 l-1 -108 -30
0 -30 0 0 103 c-1 99 -1 103 -30 135 -16 17 -34 32 -40 32 -5 0 -11 -51 -12
-122 -3 -115 -4 -123 -23 -123 -19 0 -20 9 -26 155 -4 85 -10 171 -14 190 l-9
35 -8 -30 c-4 -16 -11 -72 -15 -122 l-6 -93 -32 0 -32 0 -6 93 c-4 50 -11 106
-15 122 l-8 30 -9 -35 c-4 -19 -10 -105 -14 -190 -6 -146 -7 -155 -26 -155
-16 0 -21 8 -23 35 -2 19 -11 71 -22 115 -11 44 -20 96 -22 115 l-3 35 -22
-56 c-12 -31 -28 -93 -35 -138 -10 -64 -16 -81 -29 -81 -15 0 -18 14 -21 101
-3 87 -6 103 -23 115 -35 26 -45 -5 -45 -133 l0 -113 -25 0 -25 0 0 155 0 155
-30 0 -30 0 0 -140 0 -140 -29 0 -30 0 1 113 c0 142 0 147 -11 147 -5 0 -9
-14 -9 -31 1 -20 -5 -35 -15 -41 -11 -6 -17 -22 -17 -43 0 -24 -5 -35 -15 -35
-12 0 -15 -15 -15 -71 l0 -70 -32 3 -33 3 -6 160 c-6 175 -5 165 -18 165 -15
0 -23 -50 -30 -175 -6 -115 -7 -120 -28 -123 -23 -3 -23 -1 -23 97 l0 101 -40
0 -40 0 0 -125 0 -125 -44 0 c-51 0 -67 21 -40 51 16 18 16 19 -19 19 -28 0
-35 3 -31 15 7 16 5 17 -56 17 -59 0 -60 -1 -54 -17 5 -12 -2 -15 -31 -15 -36
0 -37 -1 -22 -17 23 -27 11 -73 -18 -73 -17 0 -25 -7 -27 -22 -3 -21 -9 -23
-58 -24 l-55 -1 50 6 c45 5 50 9 53 34 3 21 9 27 28 27 32 0 32 30 -1 58 -24
21 -34 52 -16 52 5 0 14 -7 21 -15 10 -13 14 -13 27 0 8 8 11 19 8 25 -11 17
5 32 21 19 21 -17 142 -18 149 -1 7 20 27 3 20 -18 -7 -21 23 -36 39 -20 15
15 26 12 26 -5 0 -9 -11 -26 -25 -39 -34 -32 -31 -46 10 -46 l35 0 0 124 0
124 30 6 c17 3 41 1 55 -4 24 -9 25 -13 27 -102 l1 -93 7 110 c4 61 13 126 20
145 7 19 15 41 17 49 6 24 30 -6 42 -54 6 -24 11 -96 11 -159 0 -96 3 -116 15
-116 15 0 21 32 16 98 -1 24 3 34 18 40 11 4 20 10 20 15 1 4 1 18 1 32 0 16
6 25 15 25 10 0 15 11 15 35 0 31 3 35 25 35 l25 0 0 -130 c0 -109 2 -130 15
-130 13 0 15 23 15 146 l0 145 43 -3 42 -3 3 -157 c3 -184 22 -221 22 -44 0
120 7 176 21 176 5 0 9 -7 9 -15 0 -8 6 -15 14 -15 32 0 46 -41 46 -138 0
-102 14 -117 23 -25 8 71 40 179 64 213 l18 25 6 -65 c4 -36 14 -92 22 -125 9
-33 19 -77 22 -97 12 -77 21 -34 21 106 1 106 6 164 20 216 l18 71 18 -73 c10
-40 18 -106 18 -145z m60 -180 c0 -31 -2 -33 -35 -33 -33 0 -35 2 -35 32 0 17
7 40 17 50 15 17 17 17 35 2 10 -10 18 -31 18 -51z"/>
<path d="M2140 594 c0 -17 22 -14 28 4 2 7 -3 12 -12 12 -9 0 -16 -7 -16 -16z"/>
<path d="M1491 402 c-17 -32 -13 -42 14 -42 28 0 32 17 11 45 -13 18 -14 18
-25 -3z"/>
</g>
</svg>
