<?xml version="1.0" standalone="no"?>
<!DOCTYPE svg PUBLIC "-//W3C//DTD SVG 20010904//EN"
 "http://www.w3.org/TR/2001/REC-SVG-20010904/DTD/svg10.dtd">
<svg version="1.0" xmlns="http://www.w3.org/2000/svg"
 width="300.000000pt" height="102.000000pt" viewBox="0 0 300.000000 102.000000"
 preserveAspectRatio="xMidYMid meet">
<metadata>
Created by potrace 1.10, written by Peter Selinger 2001-2011
</metadata>
<g transform="translate(0.000000,102.000000) scale(0.100000,-0.100000)"
fill="#FFFFFF" stroke="none">
<path d="M790 556 c0 -93 4 -157 10 -161 6 -4 10 38 10 119 0 68 3 131 6 140 5 13 22 16
80 16 l74 0 1 -127 c1 -71 3 -120 6 -110 2 9 11 17 19 17 8 0 20 14 25 30 6
17 17 30 23 30 7 0 19 11 26 25 14 26 30 33 30 14 0 -14 25 -39 39 -39 6 0 11
-5 11 -11 0 -6 7 -9 15 -6 22 9 32 -11 37 -80 3 -36 18 -46 18 -13 0 12 7 20
16 20 17 0 44 23 44 37 0 5 16 23 35 42 31 28 36 30 42 15 6 -15 7 -15 14 4 5
12 33 38 64 57 30 20 55 42 55 50 0 25 20 27 29 2 5 -14 27 -35 47 -48 47 -28
74 -55 74 -72 0 -7 5 -5 10 5 9 14 14 13 45 -15 19 -17 35 -37 35 -44 0 -7 5
-13 10 -13 6 0 10 -6 8 -12 -2 -7 2 -15 7 -18 6 -3 11 7 13 22 2 21 10 30 30
35 38 9 52 27 52 67 0 36 14 56 23 34 3 -7 11 1 18 20 8 17 16 32 20 32 4 0
10 -15 14 -32 4 -18 9 -27 12 -20 9 23 22 12 28 -25 8 -48 24 -81 39 -80 33 1
46 -4 46 -18 0 -8 4 -15 10 -15 5 0 11 50 12 118 3 97 6 117 18 115 79 -8 112
-17 134 -34 25 -20 26 -25 26 -125 0 -86 3 -104 15 -104 12 0 15 18 15 104 0
100 1 105 26 125 22 17 54 25 134 34 17 2 16 8 20 -153 2 -113 3 -120 12 -76
l11 48 36 -6 c20 -3 63 -6 97 -6 l61 0 7 -62 c3 -34 12 -69 20 -77 8 -9 16
-32 18 -51 3 -34 4 -35 53 -41 l50 -6 -51 -1 c-56 -2 -74 10 -74 48 0 15 -3
30 -7 34 -9 9 -32 95 -33 123 0 20 -5 21 -67 20 -38 -1 -76 2 -85 6 -14 8 -17
2 -20 -40 -3 -40 -6 -48 -23 -48 -19 0 -20 8 -23 138 -3 136 -3 137 -25 133
-12 -3 -37 -7 -56 -10 -64 -11 -71 -26 -71 -148 l0 -108 -25 0 -25 0 0 108 c0
136 -1 137 -117 156 l-33 6 0 -115 0 -115 -25 0 c-14 0 -28 7 -31 15 -5 11
-16 14 -45 10 l-39 -5 0 40 c0 22 -4 40 -8 40 -5 0 -14 12 -21 27 l-12 26 -20
-32 c-10 -17 -19 -40 -19 -50 0 -41 -10 -49 -51 -45 -38 5 -39 4 -39 -26 0
-24 -4 -30 -22 -30 -22 0 -48 36 -48 66 0 17 -48 46 -55 34 -10 -17 -35 -11
-35 8 0 21 -29 50 -80 81 l-34 20 -46 -26 c-51 -30 -69 -50 -70 -75 0 -19 -25
-25 -35 -8 -10 16 -52 -18 -64 -51 -7 -19 -17 -29 -30 -29 -14 0 -21 -6 -21
-20 0 -14 -7 -20 -24 -20 -25 0 -35 19 -37 75 -1 17 -3 22 -6 13 -6 -24 -33
-23 -33 1 0 10 -12 26 -26 36 -23 15 -27 15 -50 0 -13 -8 -24 -24 -24 -35 0
-13 -7 -20 -19 -20 -11 0 -23 -9 -26 -21 -4 -12 -14 -19 -23 -17 -15 3 -17 21
-20 126 l-3 123 -57 -3 -57 -3 -5 -130 c-5 -125 -6 -130 -27 -133 l-23 -3 0
160 0 161 -25 0 -25 0 0 -135 0 -135 -25 0 c-24 0 -25 2 -25 70 0 63 -2 70
-20 70 -11 0 -20 -4 -20 -10 0 -5 -7 -10 -15 -10 -12 0 -15 -17 -15 -90 0 -73
-3 -90 -15 -90 -8 0 -15 7 -15 15 0 8 -4 15 -10 15 -5 0 -10 17 -10 38 l0 38
-72 0 c-66 -1 -73 -3 -73 -21 0 -15 -8 -21 -32 -23 -24 -2 -33 1 -33 12 0 18
-14 28 -32 21 -9 -4 -12 -21 -10 -58 1 -28 -1 -79 -5 -112 l-8 -60 -55 -1 -55
-1 50 6 50 6 3 117 c2 105 5 117 22 123 24 8 60 -11 60 -30 0 -8 7 -15 15 -15
9 0 15 9 15 21 0 11 9 32 20 46 15 19 20 21 20 9 0 -17 1 -18 44 -20 17 -1 32
5 39 15 10 16 13 16 35 -8 16 -17 22 -34 19 -49 -2 -13 2 -29 9 -35 12 -10 14
1 14 60 0 76 5 88 51 108 39 17 49 0 49 -79 0 -39 4 -68 10 -68 6 0 10 52 10
135 l0 135 35 0 35 0 0 -154z"/>
</g>
</svg>
