<?xml version="1.0" standalone="no"?>
<!DOCTYPE svg PUBLIC "-//W3C//DTD SVG 20010904//EN"
 "http://www.w3.org/TR/2001/REC-SVG-20010904/DTD/svg10.dtd">
<svg version="1.0" xmlns="http://www.w3.org/2000/svg"
 width="300.000000pt" height="102.000000pt" viewBox="0 0 300.000000 102.000000"
 preserveAspectRatio="xMidYMid meet">
<metadata>
Created by potrace 1.10, written by Peter Selinger 2001-2011
</metadata>
<g transform="translate(0.000000,102.000000) scale(0.100000,-0.100000)"
fill="#FFFFFF" stroke="none">
<path d="M1728 718 c9 -9 15 -9 24 0 30 30 35 12 44 -155 8 -148 11 -168 27 -171 14 -3
17 4 17 47 l0 51 50 0 50 0 0 -60 c0 -46 3 -60 15 -60 12 0 15 23 17 128 3
125 3 127 27 130 13 2 28 -1 34 -7 6 -6 24 -11 39 -11 l28 0 0 -110 c0 -67 4
-110 10 -110 6 0 10 34 10 81 l0 81 28 -5 c15 -3 43 -9 62 -14 l35 -9 3 -77
c3 -86 22 -99 22 -15 0 50 0 50 28 45 15 -4 42 -9 60 -13 31 -6 32 -8 32 -55
0 -45 2 -49 25 -49 l24 0 3 128 3 127 48 3 47 3 0 -110 c0 -104 1 -111 20
-111 18 0 20 7 20 80 0 44 4 80 9 80 4 0 23 -10 42 -23 54 -35 73 -86 77 -199
l4 -97 46 -4 47 -4 -50 1 -50 1 -5 100 c-6 106 -25 163 -64 190 -40 28 -46 20
-46 -60 l0 -75 -30 0 -30 0 0 111 0 110 -36 -3 -36 -3 1 -127 2 -128 -40 0
-41 0 0 48 c0 46 -1 47 -40 60 -58 18 -59 17 -62 -40 -2 -40 -7 -54 -20 -56
-15 -3 -18 7 -20 73 l-3 77 -40 14 c-65 22 -65 22 -65 -66 0 -73 -2 -80 -20
-80 -19 0 -20 7 -20 109 l0 109 -32 6 c-79 16 -73 25 -76 -116 l-3 -128 -24 0
c-24 0 -25 3 -25 60 l0 60 -40 0 -40 0 0 -51 c0 -49 -1 -50 -27 -47 l-28 3 -9
165 c-4 91 -10 167 -12 169 -2 2 -10 -2 -18 -8 -11 -9 -20 -9 -34 -2 -19 10
-20 5 -27 -137 -4 -81 -12 -156 -16 -167 -7 -16 -8 -13 -5 10 3 17 8 94 12
173 6 142 12 160 42 130z m-1157 -110 c-12 -19 -14 -131 -5 -190 5 -28 11 -38
25 -38 17 0 19 9 19 80 l0 80 40 0 40 0 0 -60 c0 -47 3 -60 15 -60 12 0 15 16
15 85 0 78 2 88 25 110 28 29 42 31 71 7 23 -18 39 -88 23 -97 -5 -4 -9 12 -9
34 0 32 -5 44 -25 57 -25 16 -27 16 -50 -6 -23 -22 -25 -31 -25 -112 0 -87 -1
-89 -22 -86 -20 3 -23 10 -26 61 -3 56 -4 57 -32 57 l-30 0 0 -80 0 -80 -29 0
c-25 0 -29 4 -35 38 -9 59 -7 190 4 197 13 8 12 16 -5 39 -15 20 -15 20 -29 1
-10 -13 -11 -25 -5 -37 10 -19 12 -153 3 -222 -5 -36 -11 -46 -25 -46 -14 0
-19 7 -19 28 0 22 -7 30 -40 45 -37 16 -40 20 -40 56 0 58 -18 60 -22 4 -3
-41 -6 -48 -25 -51 -13 -2 -23 -8 -23 -13 0 -5 -7 -9 -15 -9 -12 0 -15 -16
-15 -85 l0 -85 -52 2 -53 2 48 3 47 4 0 85 c0 65 3 84 14 84 8 0 16 7 20 15 3
8 15 15 26 15 17 0 20 6 20 43 0 23 4 49 10 57 7 11 11 9 19 -13 6 -16 11 -42
11 -58 0 -22 5 -29 19 -29 10 0 21 -7 25 -15 3 -8 12 -15 21 -15 10 0 15 -10
15 -30 0 -42 16 -37 24 8 10 61 7 202 -5 224 -8 14 -8 23 0 31 6 6 11 19 11
28 0 32 25 26 43 -10 14 -27 16 -40 8 -53z m657 10 c8 -8 12 -50 12 -125 0
-106 1 -113 20 -113 18 0 20 8 22 93 l3 92 55 0 55 0 3 -62 c3 -55 6 -63 22
-63 18 0 20 7 20 86 l0 85 43 -3 42 -3 3 -112 c2 -91 5 -113 17 -113 12 0 15
16 15 78 0 42 4 83 9 90 5 8 22 12 42 10 l34 -3 5 -83 c4 -62 2 -82 -7 -82 -9
0 -13 23 -13 80 0 79 0 80 -25 80 -25 0 -25 -1 -25 -90 l0 -90 -30 0 -30 0 0
115 0 115 -35 0 -35 0 0 -85 0 -85 -30 0 c-29 0 -29 1 -32 63 l-3 62 -45 0
-45 0 -3 -92 -3 -93 -29 0 -30 0 0 119 c0 130 0 131 -63 131 -53 0 -56 -7 -59
-120 l-3 -105 -27 -3 c-27 -3 -27 -2 -30 60 l-3 63 -67 7 c-37 3 -72 9 -78 13
-7 4 -10 -23 -10 -80 l0 -86 -27 3 c-14 2 -28 9 -29 16 -1 7 0 8 3 2 2 -5 13
-10 24 -10 17 0 19 8 19 86 0 85 0 86 23 79 12 -4 51 -10 87 -13 l65 -7 3 -63
c3 -53 6 -63 20 -60 14 3 17 19 20 108 2 68 7 107 15 112 19 12 102 9 115 -4z
m-391 -145 c-4 -3 -7 0 -7 7 0 7 3 10 7 7 3 -4 3 -10 0 -14z m0 -50 c-4 -3 -7
0 -7 7 0 7 3 10 7 7 3 -4 3 -10 0 -14z"/>
</g>
</svg>
