<?xml version="1.0" standalone="no"?>
<!DOCTYPE svg PUBLIC "-//W3C//DTD SVG 20010904//EN"
 "http://www.w3.org/TR/2001/REC-SVG-20010904/DTD/svg10.dtd">
<svg version="1.0" xmlns="http://www.w3.org/2000/svg"
 width="300.000000pt" height="104.000000pt" viewBox="0 0 300.000000 104.000000"
 preserveAspectRatio="xMidYMid meet">
<metadata>
Created by potrace 1.10, written by Peter Selinger 2001-2011
</metadata>
<g transform="translate(0.000000,104.000000) scale(0.100000,-0.100000)"
fill="#FFFFFF" stroke="none">
<path d="M870 535 c4 -106 7 -138 8 -85 2 48 8 92 15 101 17 23 127 23 144 0 7 -9 13
-52 15 -96 2 -71 2 -74 5 -22 l4 58 47 -3 47 -3 6 -60 c7 -70 11 -33 10 85 0
41 4 82 9 90 7 10 10 11 10 2 0 -7 11 -17 25 -22 24 -9 24 -12 28 -127 l3
-118 2 127 c1 89 6 129 15 135 6 4 17 17 23 27 5 11 19 25 31 33 20 13 20 12
27 -129 4 -79 4 -151 1 -160 -4 -11 -3 -18 4 -18 7 0 11 28 11 80 0 68 2 80
17 80 9 0 25 7 35 17 17 15 18 13 18 -65 0 -52 4 -82 11 -82 7 0 10 29 8 83
-1 45 -1 108 0 140 l1 57 45 0 c41 0 45 2 45 25 0 23 3 25 50 25 47 0 50 -2
50 -25 0 -23 3 -25 50 -25 l50 0 0 -130 c0 -153 18 -179 22 -32 l3 97 70 0 70
0 5 -120 6 -120 2 159 c2 153 3 158 22 153 13 -3 20 0 20 9 0 8 4 14 9 14 10
0 20 -94 23 -214 l2 -91 5 80 6 80 35 0 35 0 6 -80 5 -80 2 84 c2 88 16 121
52 121 33 0 40 -22 40 -131 0 -61 4 -111 10 -114 6 -4 10 38 10 117 0 130 5
148 45 148 40 0 45 -18 45 -147 0 -75 4 -123 10 -123 6 0 10 44 10 113 0 118
6 137 43 137 37 0 46 -29 47 -142 0 -101 1 -108 20 -108 23 0 27 28 5 36 -23
9 -19 33 5 27 11 -3 20 -1 20 3 0 8 115 10 130 3 6 -3 22 -6 34 -8 5 0 -1 -12
-13 -25 -21 -22 -22 -46 -3 -46 23 1 33 24 38 85 3 38 11 80 18 93 l13 26 12
-22 c7 -12 13 -49 16 -81 2 -33 8 -68 14 -79 6 -12 11 -37 11 -56 0 -36 0 -36
44 -36 25 0 48 -5 51 -10 9 -15 -91 -12 -103 3 -5 6 -12 28 -15 47 -3 19 -12
67 -20 105 l-15 70 -1 -55 c-1 -69 -21 -100 -63 -100 -29 0 -30 1 -25 34 6 39
-3 46 -63 46 -57 0 -72 -8 -59 -32 17 -31 4 -50 -33 -46 l-33 3 -3 115 c-1 63
-7 119 -11 123 -5 5 -18 6 -30 2 -20 -6 -21 -13 -21 -121 0 -107 -1 -114 -20
-114 -19 0 -20 7 -20 125 0 107 -2 125 -17 134 -11 6 -24 6 -35 0 -16 -9 -18
-25 -18 -134 0 -118 -1 -125 -20 -125 -18 0 -20 8 -22 118 l-3 117 -25 0 c-25
0 -25 -1 -28 -102 -2 -93 -5 -103 -21 -103 -23 0 -31 26 -31 108 0 59 -1 62
-25 62 -24 0 -24 -2 -27 -87 -3 -74 -6 -88 -20 -91 -16 -3 -18 9 -18 136 0
112 -3 142 -15 152 -13 11 -15 -5 -15 -139 l0 -151 -25 0 -25 0 0 114 c0 112
-6 136 -32 119 -20 -12 -48 -14 -48 -3 0 16 -27 11 -34 -6 -3 -9 -6 -56 -6
-106 0 -87 -1 -89 -22 -86 -22 3 -23 7 -26 128 -3 127 -8 142 -43 133 -17 -5
-19 -18 -21 -136 -2 -93 -7 -132 -15 -135 -10 -3 -13 33 -13 157 l0 161 -35 0
-34 0 -3 -157 c-3 -133 -5 -158 -18 -158 -12 0 -15 23 -18 133 l-3 132 -29 0
-30 0 0 -140 c0 -133 -1 -140 -20 -140 -21 0 -20 -2 -25 110 0 18 -6 25 -20
25 -18 0 -20 -8 -23 -82 -3 -75 -5 -83 -22 -83 -19 0 -20 8 -20 163 -1 162 -1
162 -20 137 -10 -14 -26 -33 -34 -42 -13 -14 -16 -44 -16 -138 0 -113 -1 -120
-20 -120 -19 0 -20 7 -20 120 0 100 -2 120 -15 120 -12 0 -15 -19 -15 -111 0
-109 0 -110 -22 -107 -20 3 -24 10 -28 63 -5 59 -6 60 -35 60 -29 0 -30 -2
-33 -52 -3 -45 -6 -53 -23 -53 -17 0 -19 7 -19 79 0 55 -4 82 -14 90 -10 9
-16 9 -21 1 -5 -8 -10 -8 -20 0 -10 8 -15 8 -20 0 -5 -8 -11 -8 -19 -1 -25 21
-36 -11 -36 -102 0 -86 -1 -88 -22 -85 -23 3 -23 5 -26 171 -2 138 -5 167 -17
167 -12 0 -15 -27 -17 -152 -3 -150 -3 -153 -25 -156 -22 -3 -23 0 -23 62 l0
65 -40 -1 c-37 0 -40 -2 -40 -29 0 -16 -2 -29 -5 -29 -15 0 -59 37 -80 67 -14
21 -26 30 -30 23 -4 -6 -14 -8 -24 -5 -12 4 -20 -4 -29 -29 -7 -18 -24 -46
-38 -61 l-25 -27 -24 22 c-14 13 -27 31 -30 41 -10 29 -44 8 -65 -39 -19 -41
-19 -42 0 -42 16 0 20 -7 20 -35 0 -19 -4 -35 -10 -35 -5 0 -10 11 -10 25 0
18 -5 25 -20 25 -25 0 -25 11 0 52 11 18 20 45 20 59 0 32 9 42 27 28 9 -9 13
-8 13 0 0 21 18 11 30 -18 6 -16 21 -38 32 -48 19 -17 20 -17 39 7 10 14 26
46 35 73 15 45 34 63 34 32 0 -8 5 -15 10 -15 6 0 10 7 10 15 0 25 14 16 40
-26 13 -22 35 -46 47 -55 22 -14 23 -13 23 14 0 27 2 28 50 29 l50 1 0 -64 c0
-36 4 -64 10 -64 6 0 10 56 10 148 0 82 3 152 7 156 4 4 19 6 33 4 l25 -3 5
-170z m-180 -125 c0 -5 -19 -10 -41 -10 l-42 0 7 -50 7 -50 -61 0 -61 0 7 51
7 50 -39 -6 c-22 -4 -45 -8 -51 -10 -16 -5 -17 -37 -2 -52 20 -20 -1 -33 -56
-33 -51 0 -54 -1 -57 -27 -3 -26 -7 -28 -55 -31 -32 -2 -53 1 -53 7 0 6 22 11
50 11 49 0 50 1 50 30 0 29 1 30 50 30 l50 0 0 39 c0 44 12 51 89 51 l43 0 -4
-45 -3 -45 35 0 c35 0 36 1 32 35 -7 55 2 65 53 65 25 0 45 -4 45 -10z"/>
</g>
</svg>
