<?xml version="1.0" standalone="no"?>
<!DOCTYPE svg PUBLIC "-//W3C//DTD SVG 20010904//EN"
 "http://www.w3.org/TR/2001/REC-SVG-20010904/DTD/svg10.dtd">
<svg version="1.0" xmlns="http://www.w3.org/2000/svg"
 width="900.000000pt" height="309.000000pt" viewBox="0 0 900.000000 309.000000"
 preserveAspectRatio="xMidYMid meet">
<metadata>
Created by potrace 1.10, written by Peter Selinger 2001-2011
</metadata>
<g transform="translate(0.000000,309.000000) scale(0.100000,-0.100000)"
fill="FFFFFF" stroke="#FFFFFF">
  <!-- Add the path with animation -->
  <path id="draw-path" d="M4267 1965 c6 -2 13 -21 15 -42 l3 -38 65 -3 c35 -2 70 -8 76 -13 7 -5
24 -7 38 -3 56 14 56 17 56 -407 l0 -389 26 -6 c14 -4 37 -1 50 5 l25 11 -2
307 c-3 348 -6 333 83 333 37 0 50 4 58 20 6 11 21 20 33 20 12 1 33 7 47 15
33 19 139 19 164 0 11 -8 30 -15 42 -15 13 0 29 -9 37 -21 14 -20 23 -21 180
-20 127 1 167 -1 175 -12 8 -9 13 -92 14 -248 l3 -234 24 -3 c12 -2 34 -1 47
2 l24 6 0 290 c0 277 1 291 20 310 19 19 33 20 214 20 145 0 197 -3 203 -12 4
-7 10 -182 13 -388 l5 -375 35 0 35 0 3 197 c2 187 3 198 23 208 13 7 75 10
170 8 120 -2 152 -6 159 -18 5 -8 10 -74 10 -147 0 -122 1 -132 20 -138 10 -3
28 -1 40 5 19 10 20 20 20 233 0 122 4 228 8 235 7 9 71 12 288 10 l279 -3 3
-301 c3 -327 4 -333 57 -320 23 6 25 10 25 71 0 52 4 68 20 82 11 10 29 26 40
36 11 9 33 17 49 17 42 0 81 17 81 34 0 9 9 20 20 26 16 8 26 6 49 -11 29 -21
31 -21 55 -5 24 15 26 22 26 90 0 53 4 77 15 86 8 7 15 18 15 24 0 7 13 26 30
43 18 19 32 45 36 71 7 47 26 78 41 69 6 -4 13 -30 16 -59 5 -38 13 -57 31
-72 41 -35 75 -111 69 -156 -7 -54 3 -89 31 -101 20 -9 29 -7 56 12 31 24 32
24 46 4 36 -50 44 -55 87 -55 37 0 50 -6 80 -35 21 -20 37 -39 38 -43 0 -4 2
-70 3 -147 4 -168 17 -277 35 -299 11 -13 36 -16 152 -16 117 0 139 -2 139
-15 0 -13 -24 -15 -158 -15 -185 0 -182 -2 -195 115 -7 66 -24 289 -26 347 -1
20 -11 32 -47 53 -25 15 -52 24 -60 21 -8 -3 -30 0 -47 8 -18 7 -55 16 -82 20
-83 12 -95 25 -95 103 0 149 -89 230 -139 127 -8 -16 -18 -37 -23 -46 -4 -10
-8 -46 -8 -81 0 -78 -13 -93 -90 -103 -30 -4 -60 -11 -66 -15 -6 -5 -33 -12
-60 -15 -27 -4 -63 -17 -81 -30 -29 -22 -32 -30 -38 -98 l-7 -74 -60 -4 c-106
-6 -98 -32 -98 311 0 263 -2 300 -16 305 -9 3 -116 6 -239 6 -173 0 -225 -3
-234 -13 -7 -9 -12 -94 -13 -243 l-3 -229 -68 -3 c-42 -2 -74 2 -83 9 -11 9
-14 41 -14 138 0 85 -4 131 -12 139 -15 15 -211 16 -239 2 -18 -10 -19 -23
-19 -199 0 -150 -3 -191 -14 -200 -9 -7 -40 -11 -78 -9 l-63 3 -3 380 c-1 208
-6 383 -10 387 -10 10 -326 13 -341 3 -7 -4 -11 -104 -11 -299 0 -214 -3 -295
-12 -304 -7 -7 -43 -12 -90 -12 -64 0 -79 3 -87 18 -5 10 -9 115 -8 240 2 177
-1 223 -11 227 -8 3 -87 5 -178 5 -163 0 -164 0 -180 25 -36 54 -165 57 -213
5 -22 -25 -35 -29 -86 -32 l-60 -3 -5 -317 c-3 -174 -8 -319 -11 -323 -4 -3
-40 -7 -80 -8 -117 -4 -109 -33 -109 408 0 428 11 384 -105 405 -122 21 -133
26 -131 63 l1 32 -77 3 -77 3 -3 -38 c-3 -38 -4 -38 -60 -50 -32 -7 -84 -19
-115 -25 l-58 -13 -5 -365 c-3 -201 -7 -366 -8 -367 -1 -2 -36 -3 -77 -3 -63
0 -76 3 -85 19 -6 12 -10 98 -10 210 0 104 -3 196 -6 205 -5 14 -30 16 -173
16 -180 0 -191 3 -191 51 0 28 -15 39 -55 39 -13 0 -27 5 -30 10 -9 15 -52 12
-85 -5 -16 -8 -33 -15 -37 -14 -24 4 -33 -4 -33 -29 0 -49 -11 -52 -191 -52
-92 0 -170 -4 -173 -9 -4 -5 -9 -83 -12 -173 -4 -89 -11 -168 -16 -175 -10
-13 -135 -12 -156 1 -8 5 -12 48 -12 149 0 78 -4 148 -8 155 -13 20 -122 44
-151 33 -15 -5 -39 -12 -54 -16 -20 -4 -31 -15 -39 -35 -6 -18 -17 -30 -27
-30 -9 0 -61 41 -115 90 -54 50 -106 94 -115 99 -9 5 -43 11 -76 15 -46 5 -65
3 -82 -9 -23 -16 -23 -17 -23 -293 0 -152 -4 -283 -9 -291 -6 -9 -33 -15 -71
-18 -86 -6 -106 9 -116 84 l-8 58 -8 -75 c-4 -41 -10 -81 -13 -88 -3 -9 -28
-12 -92 -10 l-88 3 -8 50 c-5 28 -11 104 -15 170 -4 66 -12 127 -17 135 -6 8
-12 43 -15 78 -3 34 -9 62 -15 62 -5 0 -13 -30 -17 -67 -11 -111 -25 -194 -35
-204 -10 -10 -67 14 -78 32 -11 16 -45 10 -90 -17 -25 -14 -49 -23 -55 -19 -5
3 -10 26 -10 51 0 25 -7 61 -15 81 -8 19 -15 59 -15 89 0 53 -12 78 -24 48 -3
-9 -6 -39 -6 -68 0 -29 -5 -57 -11 -63 -5 -5 -14 -77 -19 -159 -5 -82 -14
-165 -20 -184 -5 -19 -10 -91 -10 -159 0 -169 9 -161 -187 -161 -129 0 -153 2
-153 15 0 13 22 15 139 15 99 0 141 4 148 12 6 7 13 94 17 192 3 104 11 185
17 192 6 7 15 78 20 156 10 166 12 186 28 253 7 28 15 73 18 100 7 66 19 81
45 58 10 -9 16 -23 13 -31 -6 -17 21 -155 36 -184 5 -10 7 -22 4 -27 -3 -5 0
-41 7 -80 10 -62 15 -71 33 -71 12 0 26 5 33 12 9 9 21 8 52 -2 22 -7 43 -10
47 -6 4 4 13 48 19 99 7 51 18 112 24 137 6 25 13 68 17 95 7 66 20 81 45 58
10 -9 16 -23 13 -31 -5 -14 20 -157 32 -175 6 -10 7 -21 22 -217 5 -69 12
-138 16 -155 3 -16 8 -40 11 -52 4 -19 11 -23 42 -23 65 0 64 -2 69 211 4 207
15 259 55 259 29 0 36 -32 48 -225 12 -195 18 -211 69 -198 14 3 29 8 34 10 4
2 7 130 7 283 0 332 -10 310 135 310 101 0 82 10 212 -114 l63 -59 86 28 c61
19 98 25 123 21 61 -10 130 -31 143 -44 9 -9 15 -61 18 -160 l5 -147 40 0 40
0 3 172 2 173 31 15 c23 12 61 16 175 14 80 0 150 3 154 8 5 4 10 19 12 33 2
17 12 27 33 33 17 5 38 13 47 18 24 12 165 11 173 -1 3 -5 16 -10 29 -10 26 0
46 -17 46 -41 0 -35 25 -41 175 -40 141 2 178 -4 197 -33 4 -6 8 -97 8 -203 0
-105 3 -198 6 -207 8 -20 48 -21 68 -1 13 13 15 66 15 364 1 192 3 356 7 365
4 11 18 16 43 16 45 -1 168 14 174 20 2 3 8 21 13 40 9 33 13 35 59 40 48 6
147 2 172 -5z"
    stroke="#FFFFFF"
    stroke-width="3"
    fill="none"
    stroke-dasharray="37750"
    stroke-dashoffset="0">
    <animate
        attributeName="stroke-dashoffset"
        from="0"
        to="0"
        dur="10s"
        repeatCount="1"/>
  </path>
</g>
</svg>
