<?xml version="1.0" standalone="no"?>
<!DOCTYPE svg PUBLIC "-//W3C//DTD SVG 20010904//EN"
 "http://www.w3.org/TR/2001/REC-SVG-20010904/DTD/svg10.dtd">
<svg version="1.0" xmlns="http://www.w3.org/2000/svg"
 width="300.000000pt" height="57.000000pt" viewBox="0 0 300.000000 57.000000"
 preserveAspectRatio="xMidYMid meet">
<metadata>
Created by potrace 1.10, written by Peter Selinger 2001-2011
</metadata>
<g transform="translate(0.000000,57.000000) scale(0.100000,-0.100000)"
fill="#FFFFFF" stroke="none">
<path d="M2440 540 c0 -5 11 -10 25 -10 31 0 31 -7 4 -29 -19 -15 -21 -24 -15 -65 5
-32 15 -54 32 -68 13 -12 24 -28 24 -35 0 -23 103 -113 141 -123 20 -6 42 -17
49 -25 7 -8 18 -15 24 -15 7 0 21 -8 32 -19 11 -10 37 -26 57 -36 30 -14 37
-23 37 -46 0 -27 2 -28 58 -32 56 -4 56 -4 -8 -3 -62 1 -65 2 -68 27 -2 17
-13 31 -30 40 -15 7 -41 24 -58 36 -17 13 -36 23 -41 23 -6 0 -16 7 -23 15 -7
8 -21 15 -32 15 -23 0 -105 59 -113 81 -3 9 -15 19 -25 22 -13 3 -20 14 -20
30 0 16 -7 28 -19 32 -17 5 -34 48 -44 115 -4 21 -4 20 -6 -6 -1 -42 -20 -93
-42 -115 -24 -24 -49 -111 -49 -171 0 -41 -3 -48 -20 -48 -18 0 -20 7 -20 75
0 43 -4 75 -10 75 -5 0 -10 -7 -10 -15 0 -11 -11 -15 -40 -15 -34 0 -40 3 -40
21 0 11 -4 17 -10 14 -6 -3 -10 -48 -10 -101 0 -52 -4 -94 -8 -94 -5 0 -27 36
-51 80 -37 70 -46 80 -69 80 -23 0 -32 -10 -62 -64 -19 -36 -38 -62 -42 -60
-4 3 -8 58 -8 122 l0 117 -30 0 -30 0 0 -113 c0 -112 0 -113 -22 -110 -18 2
-24 11 -26 34 -3 29 -6 32 -45 36 -23 2 -61 3 -84 0 -37 -3 -43 -7 -43 -27 0
-56 -12 -85 -36 -85 -28 0 -36 31 -32 130 l3 65 -60 0 -60 0 2 -80 c2 -94 -8
-117 -45 -113 l-27 3 -3 128 c-2 117 -4 127 -21 127 -14 0 -18 -5 -14 -19 3
-13 -2 -24 -16 -33 -18 -11 -21 -22 -21 -90 l0 -78 -30 0 -30 0 0 95 c0 78 -3
95 -15 95 -9 0 -15 9 -15 25 0 18 -5 25 -19 25 -15 0 -19 -10 -25 -52 -3 -29
-6 -74 -6 -100 0 -46 -1 -48 -30 -48 l-29 0 -3 83 -3 82 -37 3 -37 3 -3 -98
-3 -98 -30 0 c-29 0 -30 2 -35 55 -5 42 -7 48 -10 25 -4 -22 -11 -31 -27 -33
-15 -2 -23 2 -23 11 0 8 -6 20 -14 26 -12 10 -17 8 -27 -11 -22 -42 -49 -46
-49 -7 0 10 -4 19 -10 19 -6 0 -10 -27 -10 -60 l0 -60 -52 41 c-70 55 -88 61
-147 48 -63 -13 -106 6 -116 51 -13 60 -37 50 -78 -33 -22 -45 -32 -55 -65
-65 -22 -7 -51 -12 -65 -12 -39 0 -68 -30 -74 -78 l-6 -42 -66 2 -66 1 60 6
60 6 6 39 c8 47 47 86 88 86 59 0 88 19 115 75 41 82 45 83 129 42 39 -20 95
-42 122 -49 28 -6 68 -25 90 -41 l40 -29 6 74 c8 95 13 113 30 113 8 0 14 -4
14 -10 2 -23 17 -55 27 -55 6 0 17 8 24 18 13 16 14 16 20 -5 3 -13 12 -23 19
-23 13 0 35 41 35 65 0 8 6 15 13 15 17 0 37 -90 33 -147 -2 -24 1 -43 5 -43
5 0 9 31 9 69 0 38 3 83 6 100 7 32 7 32 63 29 l56 -3 3 -82 c2 -46 7 -83 12
-83 12 0 12 1 14 110 l1 85 54 3 c35 2 57 -1 62 -9 5 -8 28 -12 67 -10 72 3
72 4 72 -151 0 -65 4 -108 10 -108 12 0 13 11 11 118 l-1 83 82 -3 83 -3 1
-92 c0 -51 3 -96 7 -100 4 -3 7 9 7 28 0 66 9 79 50 79 21 0 43 7 50 15 11 13
15 14 29 1 9 -7 35 -16 58 -18 l42 -3 3 85 3 85 45 -1 45 -1 5 -108 5 -107 22
46 c22 44 25 46 66 46 42 0 43 0 74 -62 l32 -63 0 62 c1 99 28 143 53 88 14
-32 42 -32 56 0 15 33 30 32 46 -5 l13 -31 11 38 c6 21 21 49 33 61 41 44 53
136 19 147 -26 8 -26 25 -1 25 11 0 23 5 26 10 3 6 13 10 21 10 8 0 14 -4 14
-10z"/>
<path d="M1280 230 c0 -40 4 -70 10 -70 6 0 10 30 10 70 0 40 -4 70 -10 70 -6
0 -10 -30 -10 -70z"/>
<path d="M510 250 c0 -12 33 -30 54 -30 27 0 18 18 -15 29 -39 13 -39 13 -39
1z"/>
</g>
</svg>
