<?xml version="1.0" standalone="no"?>
<!DOCTYPE svg PUBLIC "-//W3C//DTD SVG 20010904//EN"
 "http://www.w3.org/TR/2001/REC-SVG-20010904/DTD/svg10.dtd">
<svg version="1.0" xmlns="http://www.w3.org/2000/svg"
 width="300.000000pt" height="105.000000pt" viewBox="0 0 300.000000 105.000000"
 preserveAspectRatio="xMidYMid meet">
<metadata>
Created by potrace 1.10, written by Peter Selinger 2001-2011
</metadata>
<g transform="translate(0.000000,105.000000) scale(0.100000,-0.100000)"
fill="#FFFFFF" stroke="none">
<path d="M1522 668 c-3 -26 14 -177 24 -210 3 -10 12 -18 20 -18 8 0 14 -4 14 -10 0 -5
49 -11 113 -12 l112 -3 5 -45 c4 -36 7 -41 13 -24 4 12 5 38 3 59 -5 37 8 73
32 88 6 4 12 15 12 23 0 23 25 11 28 -14 2 -12 8 -20 13 -17 5 4 14 -6 20 -22
l11 -28 19 24 c11 13 22 21 26 17 4 -3 9 -33 11 -66 2 -33 9 -63 14 -66 5 -3
39 8 75 26 72 36 134 105 162 181 13 35 23 45 49 53 18 5 35 6 38 3 4 -3 -21
-57 -54 -119 -33 -62 -63 -123 -67 -136 -6 -22 -5 -23 37 -20 38 3 43 6 46 29
5 44 41 68 110 75 l62 7 0 -32 c0 -28 3 -31 29 -31 25 0 30 4 33 28 3 26 5 27
61 26 67 -2 110 -26 115 -65 2 -13 5 -47 8 -76 l6 -52 51 -4 52 -3 -56 -2 -57
-2 -5 42 c-16 128 -31 148 -114 148 -39 0 -43 -2 -43 -25 0 -23 -4 -25 -45
-25 -41 0 -45 2 -45 25 0 23 -4 25 -42 25 -59 0 -91 -19 -99 -56 -9 -45 -17
-54 -47 -54 -49 0 -72 11 -72 34 0 12 25 70 56 130 31 59 54 110 51 112 -9 9
-37 -9 -37 -25 0 -30 -58 -118 -105 -159 -26 -23 -72 -51 -102 -62 -72 -27
-86 -17 -77 51 5 34 3 49 -5 49 -6 0 -11 -4 -11 -9 0 -5 -8 -12 -17 -15 -11
-5 -25 3 -44 25 l-27 31 -21 -21 c-18 -18 -21 -29 -15 -69 5 -37 2 -51 -10
-61 -28 -23 -46 -6 -46 44 l0 45 -115 0 c-105 0 -116 2 -135 22 -11 12 -20 35
-20 50 0 41 -16 26 -24 -22 -3 -22 -7 -41 -9 -41 -1 -1 -58 -5 -127 -8 l-125
-6 -3 -32 -3 -33 -99 0 -99 0 -3 28 -3 27 -135 3 c-74 1 -141 5 -147 7 -8 3
-13 22 -13 50 0 60 -18 58 -22 -2 -3 -46 -4 -48 -40 -56 -36 -8 -38 -11 -38
-48 0 -35 -3 -39 -24 -39 -20 0 -25 6 -28 32 -2 22 -9 34 -23 38 -11 3 -33 14
-48 24 -37 25 -81 24 -117 -2 -16 -12 -38 -22 -49 -22 -18 0 -20 -8 -23 -72
l-3 -73 -60 -1 c-55 -1 -55 -1 -9 3 l51 4 7 65 c4 36 4 69 1 74 -4 6 5 10 20
10 14 0 28 6 31 14 3 8 18 16 33 19 16 3 36 14 46 23 10 11 19 13 23 7 11 -16
51 -35 62 -28 5 3 14 -4 20 -15 6 -12 21 -20 35 -20 22 0 24 -3 19 -30 -4 -19
-2 -30 5 -30 6 0 11 18 11 44 0 44 13 68 23 44 4 -10 8 -10 15 1 7 9 12 10 16
2 15 -24 25 -8 29 52 6 74 17 127 26 127 10 0 31 -100 31 -148 0 -40 13 -56
23 -29 4 9 8 8 16 -3 9 -12 12 -13 20 -1 6 9 10 10 16 2 5 -9 10 -9 20 -1 10
8 15 7 19 -2 5 -11 7 -11 12 0 4 9 9 10 19 2 10 -8 15 -8 20 0 5 8 10 8 20 0
10 -8 15 -8 20 1 6 8 10 7 16 -2 8 -12 10 -12 18 0 6 9 10 10 16 2 5 -9 10 -9
20 -1 10 8 14 4 20 -17 9 -37 20 -43 80 -43 74 0 95 8 95 36 0 24 1 24 108 24
153 1 160 9 169 193 3 62 8 87 16 84 7 -2 11 -15 9 -29z m-341 -358 c10 -6 19
-15 19 -21 0 -6 -7 -6 -19 1 -30 15 -82 12 -103 -7 -15 -14 -18 -14 -18 -1 0
31 81 49 121 28z"/>
</g>
</svg>
