<?xml version="1.0" standalone="no"?>
<!DOCTYPE svg PUBLIC "-//W3C//DTD SVG 20010904//EN"
 "http://www.w3.org/TR/2001/REC-SVG-20010904/DTD/svg10.dtd">
<svg version="1.0" xmlns="http://www.w3.org/2000/svg"
 width="300.000000pt" height="104.000000pt" viewBox="0 0 300.000000 104.000000"
 preserveAspectRatio="xMidYMid meet">
<metadata>
Created by potrace 1.10, written by Peter Selinger 2001-2011
</metadata>
<g transform="translate(0.000000,104.000000) scale(0.100000,-0.100000)"
fill="#FFFFFF" stroke="none">
<path d="M1988 674 c21 -14 22 -21 22 -134 0 -73 4 -120 10 -120 6 0 10 40 10 100 l0
100 95 0 95 0 0 -131 c0 -100 3 -130 13 -127 6 3 13 23 15 46 3 45 26 61 61
43 36 -20 58 -13 75 24 22 45 34 51 42 20 3 -14 10 -25 15 -25 5 0 9 -7 9 -15
0 -18 32 -20 62 -4 15 8 27 8 44 0 20 -9 23 -19 26 -68 2 -41 6 -52 11 -38 5
11 13 28 18 37 5 10 9 37 9 60 0 51 22 130 38 136 6 2 14 -9 17 -25 4 -15 10
-36 16 -45 5 -10 9 -43 9 -73 0 -30 5 -55 10 -55 6 0 10 -28 10 -64 l0 -65 53
-4 52 -3 -57 -2 -58 -2 0 64 c0 48 -4 65 -15 70 -10 4 -15 20 -15 53 0 26 -7
68 -14 93 l-15 45 0 -37 c-1 -21 -5 -38 -11 -38 -6 0 -10 -27 -10 -60 0 -33
-4 -60 -10 -60 -5 0 -10 -12 -10 -26 0 -21 -4 -25 -22 -22 -18 2 -24 10 -26
38 -4 58 -12 80 -27 80 -8 0 -15 -4 -15 -9 0 -6 -18 -10 -39 -9 -33 0 -42 5
-53 29 l-14 28 -17 -28 c-14 -24 -24 -29 -57 -29 -22 0 -40 3 -40 9 0 15 -27
10 -34 -7 -3 -9 -6 -29 -6 -45 0 -27 -3 -30 -27 -27 l-28 3 -3 128 -3 127 -74
0 -74 0 -3 -102 c-3 -102 -3 -103 -28 -103 l-25 0 -3 127 c-3 148 1 142 -110
151 -110 9 -111 7 -114 -178 -3 -146 -4 -150 -25 -153 -20 -3 -22 1 -25 55
l-3 58 -121 3 c-119 3 -122 2 -128 -20 -3 -13 -6 -35 -6 -50 0 -23 -4 -28 -25
-28 l-25 0 0 115 0 115 -50 25 c-27 14 -52 25 -55 25 -3 0 -5 -49 -5 -110 0
-103 -1 -110 -20 -110 -18 0 -20 7 -20 64 0 63 0 64 -30 68 -16 3 -43 3 -60 0
l-30 -4 0 -104 0 -104 -25 0 c-19 0 -25 6 -26 23 -1 12 -3 31 -4 42 -1 11 -2
44 -3 73 l-2 52 -35 0 c-19 0 -35 5 -35 10 0 6 -9 10 -19 10 -12 0 -21 9 -25
26 -8 31 -40 29 -44 -4 -2 -14 -10 -22 -22 -22 -10 0 -22 -4 -25 -10 -3 -5
-22 -10 -41 -10 l-34 0 0 -70 c0 -63 -2 -70 -20 -70 -16 0 -20 7 -20 31 0 30
-1 30 -47 29 -27 -1 -63 -1 -80 -1 l-33 1 0 70 c0 55 -3 70 -15 70 -11 0 -15
-19 -17 -87 l-3 -88 -72 -3 c-72 -3 -73 -3 -73 23 0 16 -6 25 -15 25 -10 0
-15 10 -15 30 0 17 -4 30 -10 30 -5 0 -10 -13 -10 -30 0 -20 -5 -30 -15 -30
-12 0 -15 -13 -15 -60 0 -33 -4 -60 -9 -60 -6 0 -11 -24 -13 -52 l-3 -53 -60
-1 c-55 -1 -56 -1 -9 3 l52 4 4 56 c3 32 10 59 16 61 7 2 12 26 12 58 0 30 5
54 10 54 6 0 10 11 10 25 0 15 7 40 16 57 l16 32 14 -33 c8 -18 14 -44 14 -57
0 -13 5 -24 10 -24 6 0 10 -9 10 -20 0 -18 7 -20 60 -20 l60 0 0 59 c0 32 8
82 17 111 l17 52 17 -44 c10 -23 18 -67 18 -95 l1 -53 44 0 c25 0 48 5 51 10
3 6 17 10 31 10 21 0 24 -4 24 -40 0 -22 5 -40 11 -40 6 0 10 21 9 53 -3 107
-3 107 29 101 16 -3 31 -1 35 4 3 6 15 8 26 5 13 -3 20 0 20 9 0 7 10 26 21
40 l22 27 17 -22 c9 -12 20 -30 23 -41 5 -12 14 -17 27 -13 11 3 20 1 20 -4 0
-5 11 -9 25 -9 14 0 25 5 25 11 0 5 5 7 10 4 6 -3 10 -52 10 -111 0 -139 18
-136 22 4 l3 107 75 0 75 0 6 -70 c5 -63 6 -59 7 43 2 128 3 128 82 89 l45
-22 5 -115 c3 -69 9 -114 15 -113 6 2 11 24 13 51 l3 48 139 1 140 1 1 -37 c1
-20 0 -48 -1 -63 -1 -16 3 -28 9 -28 7 0 11 49 11 147 0 138 1 148 22 171 22
22 27 23 108 17 47 -4 95 -13 108 -21z"/>
</g>
</svg>
