<?xml version="1.0" standalone="no"?>
<!DOCTYPE svg PUBLIC "-//W3C//DTD SVG 20010904//EN"
 "http://www.w3.org/TR/2001/REC-SVG-20010904/DTD/svg10.dtd">
<svg version="1.0" xmlns="http://www.w3.org/2000/svg"
 width="300.000000pt" height="104.000000pt" viewBox="0 0 300.000000 104.000000"
 preserveAspectRatio="xMidYMid meet">
<metadata>
Created by potrace 1.10, written by Peter Selinger 2001-2011
</metadata>
<g transform="translate(0.000000,104.000000) scale(0.100000,-0.100000)"
fill="#FFFFFF" stroke="none">
<path d="M1630 681 c0 -21 3 -23 30 -17 l30 6 0 -151 c0 -135 2 -150 15 -139 13 11 16
35 14 127 -1 65 3 119 9 125 5 5 25 8 43 6 l34 -3 5 -125 4 -125 6 125 5 125
28 3 c51 6 57 -9 57 -138 0 -96 3 -119 15 -124 12 -4 15 6 15 60 0 59 3 68 29
95 16 16 34 29 40 29 6 0 11 4 11 10 0 5 13 16 30 25 l29 15 3 -102 c3 -115
21 -141 26 -38 3 71 13 90 46 90 39 0 46 -19 46 -118 0 -70 3 -93 13 -90 8 3
14 42 17 129 5 125 17 169 45 169 32 0 45 -54 45 -185 0 -104 3 -125 15 -125
8 0 18 12 21 28 4 15 10 32 15 37 4 6 9 28 11 49 4 56 24 56 31 2 8 -59 34
-119 47 -111 6 4 10 55 10 126 0 99 3 119 15 119 8 0 15 6 15 13 0 7 7 4 15
-7 8 -11 15 -16 16 -10 0 5 4 0 9 -11 5 -11 9 -62 9 -112 1 -76 4 -93 16 -93
11 0 15 12 15 50 0 49 16 100 31 100 5 0 12 -18 15 -39 8 -47 25 -45 44 4 26
67 38 37 47 -112 l6 -102 56 -4 56 -3 -61 -2 -61 -2 -6 97 c-4 53 -11 101 -17
107 -7 7 -10 2 -10 -15 0 -22 -5 -26 -30 -26 -22 0 -30 5 -30 18 0 10 -4 20
-9 23 -5 3 -12 -21 -16 -55 -7 -58 -8 -60 -34 -57 -26 3 -26 4 -29 96 -2 81
-5 92 -21 92 -15 0 -19 -11 -25 -61 -3 -34 -6 -82 -6 -105 0 -40 -2 -44 -24
-44 -24 0 -38 22 -57 90 l-7 25 -1 -26 c-2 -44 -30 -89 -56 -89 -12 0 -26 7
-29 16 -3 9 -6 68 -6 133 0 88 -4 122 -15 137 -25 33 -35 -1 -35 -128 0 -64
-3 -123 -6 -132 -3 -9 -17 -16 -30 -16 -24 0 -24 2 -24 91 0 75 -3 94 -17 104
-13 10 -21 10 -35 1 -14 -9 -18 -24 -18 -78 0 -66 -1 -68 -25 -68 -25 0 -25 0
-25 95 0 55 -4 95 -10 95 -5 0 -26 -16 -46 -35 -19 -19 -40 -35 -45 -35 -5 0
-9 -36 -9 -80 0 -70 -2 -80 -18 -80 -36 0 -42 20 -42 142 0 116 0 118 -24 124
-14 3 -30 3 -35 -1 -7 -4 -11 -52 -11 -126 0 -112 -1 -119 -20 -119 -19 0 -20
7 -20 126 l0 125 -27 -3 -28 -3 -3 -119 c-3 -122 -14 -155 -47 -142 -12 4 -15
31 -15 145 l0 139 -35 4 -35 4 0 -158 c0 -151 -1 -158 -20 -158 -39 0 -58 33
-61 104 -1 36 1 69 4 73 11 10 8 20 -6 26 -20 7 -41 -8 -32 -24 5 -7 7 -41 6
-76 -3 -68 -21 -103 -53 -103 -16 0 -18 11 -18 106 0 84 -3 110 -17 128 l-17
23 -23 -34 c-20 -29 -23 -47 -23 -123 0 -89 0 -90 -24 -90 -31 0 -35 20 -34
168 0 123 -12 173 -38 147 -11 -10 -14 -48 -14 -147 0 -141 -10 -178 -44 -165
-14 5 -16 25 -16 131 0 123 -9 156 -30 116 -14 -26 -36 -26 -51 1 -20 38 -28
6 -31 -121 l-3 -125 -25 0 c-25 0 -25 1 -28 103 -3 100 -3 103 -25 100 -21 -3
-22 -9 -25 -90 -3 -86 -3 -88 -27 -88 -20 0 -25 5 -25 24 0 18 -7 25 -30 29
-23 5 -30 12 -30 30 0 13 -3 26 -6 30 -12 12 -34 -6 -34 -29 0 -19 -7 -26 -30
-30 -26 -6 -30 -11 -30 -41 0 -36 -23 -54 -42 -35 -7 7 -15 42 -20 78 -12 100
-26 103 -35 8 -6 -62 -16 -84 -39 -84 -10 0 -14 24 -16 97 -3 95 -3 97 -33
114 -16 10 -33 18 -37 18 -5 1 -8 -55 -8 -124 0 -124 0 -125 -23 -125 -27 0
-89 43 -99 68 -6 16 -7 16 -7 0 -1 -9 -19 -27 -41 -39 -36 -20 -40 -27 -40
-61 l0 -38 -57 2 -58 2 52 3 53 4 1 72 c0 40 4 81 9 92 7 17 9 17 9 3 1 -10 8
-18 16 -18 9 0 15 -9 15 -22 0 -17 3 -19 12 -10 6 6 13 48 16 92 2 44 8 83 13
85 4 3 11 -35 15 -85 3 -49 9 -90 13 -90 10 0 41 39 41 50 0 6 5 10 10 10 6 0
10 -15 11 -32 1 -18 5 -44 9 -58 5 -15 8 28 9 113 1 75 3 137 6 137 12 0 55
-24 55 -31 0 -4 10 -9 23 -11 21 -3 22 -9 27 -103 5 -103 14 -109 25 -17 6 50
22 92 36 92 14 0 29 -55 29 -103 0 -49 12 -77 32 -77 4 0 8 15 8 34 0 30 4 35
30 41 24 5 30 12 30 32 0 13 7 31 15 39 13 14 17 14 30 0 8 -8 15 -24 15 -36
0 -15 11 -25 35 -36 25 -10 35 -21 35 -36 0 -14 3 -19 10 -12 5 5 10 47 12 94
3 80 4 85 26 88 43 6 52 -13 52 -114 0 -56 4 -94 10 -94 6 0 10 46 10 119 0
68 4 122 10 126 5 3 14 20 19 38 6 21 10 25 10 12 1 -11 10 -31 21 -45 l19
-25 20 45 c13 28 21 37 21 25 0 -11 8 -32 17 -45 10 -14 17 -26 15 -27 -8 -9
0 -223 8 -223 6 0 10 48 10 123 0 67 3 139 6 160 6 34 9 37 41 37 20 0 32 -4
28 -10 -3 -5 -1 -10 4 -10 7 0 11 -46 11 -132 0 -135 5 -178 21 -178 5 0 9 45
9 100 0 55 4 100 9 100 5 0 15 16 23 36 l15 37 26 -35 c25 -32 27 -42 27 -136
0 -56 4 -102 9 -102 21 0 33 35 36 107 3 86 11 123 29 123 19 0 33 -52 35
-129 2 -71 14 -101 40 -101 7 0 11 56 11 170 0 107 4 170 10 170 6 0 10 10 10
23 0 18 2 19 10 7 5 -8 10 -26 10 -39z m-500 -236 c0 -91 -3 -115 -14 -115
-19 0 -26 32 -26 131 0 87 3 99 27 99 10 0 13 -26 13 -115z"/>
<path d="M1114 445 c0 -55 1 -76 3 -47 2 29 2 74 0 100 -2 26 -3 2 -3 -53z"/>
</g>
</svg>
