<?xml version="1.0" standalone="no"?>
<!DOCTYPE svg PUBLIC "-//W3C//DTD SVG 20010904//EN"
 "http://www.w3.org/TR/2001/REC-SVG-20010904/DTD/svg10.dtd">
<svg version="1.0" xmlns="http://www.w3.org/2000/svg"
 width="300.000000pt" height="102.000000pt" viewBox="0 0 300.000000 102.000000"
 preserveAspectRatio="xMidYMid meet">
<metadata>
Created by potrace 1.10, written by Peter Selinger 2001-2011
</metadata>
<g transform="translate(0.000000,102.000000) scale(0.100000,-0.100000)"
fill="#FFFFFF" stroke="none">
<path d="M1770 698 c0 -10 5 -18 10 -18 6 0 10 -51 11 -132 1 -150 9 -220 26 -225 8 -3
12 30 15 115 2 97 6 124 21 139 9 11 17 28 17 38 0 12 9 6 27 -21 25 -36 28
-48 31 -146 2 -60 8 -108 13 -108 4 0 10 46 11 103 l3 102 31 3 31 3 6 -77 c4
-42 7 -95 7 -116 0 -27 4 -38 13 -36 8 3 13 35 15 104 1 54 7 109 13 121 7 12
9 29 6 37 -4 10 -1 16 8 16 8 0 16 10 16 23 l2 22 4 -22 c2 -13 11 -23 19 -23
11 0 14 -24 14 -130 0 -109 2 -130 15 -130 12 0 15 16 15 84 0 113 9 176 26
176 8 0 15 10 15 23 1 20 2 20 6 2 3 -11 11 -24 19 -30 10 -7 14 -44 16 -140
3 -108 6 -130 18 -130 11 0 17 16 21 60 5 60 38 143 39 100 0 -11 7 -29 15
-39 9 -12 15 -42 15 -73 0 -46 3 -53 20 -53 16 0 19 7 18 43 -2 79 2 150 8
145 3 -3 9 -28 14 -55 l8 -48 1 47 c1 65 9 82 27 63 9 -8 14 -35 14 -69 0 -31
3 -56 8 -56 13 1 72 59 73 72 0 9 2 9 6 -1 6 -16 64 -70 76 -71 4 0 7 21 8 48
0 40 16 105 18 77 1 -5 6 -3 11 5 7 11 10 3 10 -28 0 -47 19 -50 21 -4 l1 27
8 -30 c4 -16 8 -78 9 -137 l1 -107 53 -4 52 -4 -55 1 -55 1 -3 36 c-2 26 -9
38 -22 42 -10 2 -20 15 -22 28 -1 13 -8 24 -15 24 -7 0 -28 15 -47 33 -19 17
-40 32 -48 32 -7 0 -31 -17 -52 -38 -22 -20 -41 -36 -43 -34 -10 8 -22 -1 -25
-20 -3 -23 -38 -38 -70 -30 -14 3 -18 15 -18 56 -1 58 -21 108 -36 85 -5 -8
-11 -41 -14 -74 -5 -56 -7 -60 -30 -60 l-25 0 -3 138 c-3 136 -3 137 -26 137
-20 0 -24 -6 -30 -46 -3 -26 -6 -84 -6 -130 0 -83 0 -84 -25 -84 l-25 0 0 130
c0 123 -1 130 -20 130 -14 0 -20 -7 -20 -23 0 -13 -4 -27 -10 -33 -5 -5 -11
-56 -12 -114 -3 -98 -4 -105 -24 -108 -20 -3 -21 4 -30 110 -8 103 -11 113
-29 113 -19 0 -20 -8 -23 -102 -2 -95 -4 -103 -22 -103 -12 0 -20 7 -20 18 -4
177 -7 203 -23 219 -16 16 -18 16 -34 0 -15 -14 -19 -40 -21 -137 -3 -90 -7
-120 -17 -120 -32 0 -39 32 -45 198 -4 139 -7 167 -20 167 -13 0 -16 -29 -20
-180 -5 -177 -5 -180 -27 -183 -13 -2 -23 0 -23 5 0 14 -33 298 -35 301 -1 1
-14 -2 -27 -7 -24 -9 -26 -15 -32 -108 -11 -160 -14 -173 -42 -173 -23 0 -24
2 -24 77 0 57 -4 81 -17 95 -20 22 -28 23 -53 1 -17 -15 -20 -30 -20 -105 0
-81 -2 -88 -20 -88 -19 0 -20 7 -20 97 0 92 -1 98 -27 125 l-27 28 -28 -27
c-27 -26 -28 -31 -28 -121 0 -91 -1 -93 -22 -90 -22 3 -23 6 -26 145 -2 135
-4 142 -24 149 -16 5 -27 0 -40 -16 -15 -19 -18 -41 -18 -141 l0 -119 -26 0
-25 0 3 100 c3 108 1 112 -59 102 -21 -4 -22 -9 -25 -116 l-3 -111 -27 -3 -28
-3 0 141 c0 141 0 141 -22 138 -22 -3 -23 -7 -26 -131 l-3 -128 -37 3 -37 3
-3 104 c-2 60 2 108 7 115 8 9 7 18 -2 30 -12 16 -14 16 -26 3 -9 -12 -10 -21
-2 -36 12 -21 15 -143 5 -203 -7 -41 -16 -45 -57 -25 -20 9 -27 19 -27 40 0
42 -18 32 -27 -15 -10 -48 -37 -63 -47 -26 -5 19 -8 20 -16 8 -8 -13 -10 -12
-11 5 0 11 -3 14 -6 8 -18 -47 -22 29 -6 127 5 30 7 32 13 15 8 -19 9 -19 9 3
1 13 5 20 11 17 6 -3 10 -41 11 -83 0 -80 12 -130 23 -102 3 8 12 47 20 85 8
39 15 63 17 55 1 -8 3 -19 4 -25 1 -5 5 -28 9 -50 6 -30 15 -44 34 -53 14 -6
28 -10 30 -7 12 12 12 201 1 222 -9 17 -9 26 1 38 7 8 16 41 20 73 l7 57 2
-50 c0 -28 8 -60 16 -73 12 -16 13 -27 5 -41 -5 -11 -10 -63 -10 -115 l0 -96
30 0 30 0 -1 115 c-1 120 6 145 42 145 10 0 19 9 22 23 2 12 5 -51 6 -140 1
-158 2 -163 22 -163 20 0 21 4 17 114 l-3 114 28 5 c15 2 39 2 55 0 l27 -5 -3
-99 c-3 -85 -2 -99 12 -99 14 0 16 16 16 114 0 83 4 124 16 152 9 22 19 33 21
27 3 -7 13 -13 23 -13 32 0 39 -24 42 -159 2 -96 7 -136 16 -139 9 -3 12 20
12 91 0 94 0 96 31 121 32 27 37 26 76 -8 21 -18 23 -28 23 -118 0 -59 4 -98
10 -98 6 0 10 36 10 89 0 83 2 90 25 105 32 21 40 20 70 -6 22 -19 25 -29 25
-95 0 -75 13 -98 23 -40 3 17 9 78 13 135 6 98 8 104 31 113 48 18 49 16 66
-143 9 -83 19 -153 21 -156 3 -2 9 -1 15 3 7 4 11 69 11 186 0 113 4 179 10
179 6 0 10 12 10 28 0 21 2 24 10 12 5 -8 10 -23 10 -32z m-1434 -211 c11 4
14 -8 14 -66 0 -71 0 -71 20 -51 11 11 23 20 28 20 4 0 25 17 47 38 43 42 42
42 95 -10 16 -16 32 -28 38 -28 12 0 37 -29 30 -35 -2 -2 -27 16 -55 40 -57
50 -83 56 -110 22 -10 -12 -30 -30 -45 -40 -16 -10 -28 -25 -28 -33 0 -11 -5
-14 -17 -10 -9 4 -20 1 -25 -6 -4 -8 -9 12 -10 47 -2 56 -2 54 -8 -25 l-6 -85
-2 91 c-2 88 8 178 16 142 2 -10 9 -15 18 -11z m-36 -247 c0 -6 -25 -9 -57 -8
l-58 1 55 7 c30 4 56 7 58 8 1 1 2 -2 2 -8z"/>
<path d="M2680 430 c0 -7 3 -10 7 -7 3 4 3 10 0 14 -4 3 -7 0 -7 -7z"/>
<path d="M2420 390 c0 -7 3 -10 7 -7 3 4 3 10 0 14 -4 3 -7 0 -7 -7z"/>
<path d="M2680 390 c0 -7 3 -10 7 -7 3 4 3 10 0 14 -4 3 -7 0 -7 -7z"/>
<path d="M2422 340 c0 -14 2 -19 5 -12 2 6 2 18 0 25 -3 6 -5 1 -5 -13z"/>
<path d="M2681 344 c0 -11 3 -14 6 -6 3 7 2 16 -1 19 -3 4 -6 -2 -5 -13z"/>
</g>
</svg>
