<?xml version="1.0" standalone="no"?>
<!DOCTYPE svg PUBLIC "-//W3C//DTD SVG 20010904//EN"
 "http://www.w3.org/TR/2001/REC-SVG-20010904/DTD/svg10.dtd">
<svg version="1.0" xmlns="http://www.w3.org/2000/svg"
 width="300.000000pt" height="104.000000pt" viewBox="0 0 300.000000 104.000000"
 preserveAspectRatio="xMidYMid meet">
<metadata>
Created by potrace 1.10, written by Peter Selinger 2001-2011
</metadata>
<g transform="translate(0.000000,104.000000) scale(0.100000,-0.100000)"
fill="#FFFFFF" stroke="none">
<path d="M1215 684 c19 -13 26 -28 31 -76 4 -36 12 -62 20 -65 10 -4 15 -29 16 -92 l2
-86 3 84 c4 96 14 110 76 111 41 0 63 -14 69 -46 5 -26 86 -33 104 -9 9 12 19
15 35 10 37 -12 48 -29 52 -81 l3 -49 2 54 c3 76 19 114 61 142 20 13 39 28
42 33 9 12 96 -51 105 -78 4 -11 10 -54 13 -94 8 -104 25 -95 31 16 4 78 8 97
25 110 11 10 26 29 32 45 8 16 20 27 33 27 11 0 29 6 40 12 36 23 44 -1 43
-134 0 -68 2 -102 4 -75 4 44 6 47 31 47 20 0 33 8 45 30 13 22 26 30 45 30
26 0 62 -29 62 -49 0 -6 15 -11 33 -13 l32 -3 6 -70 c3 -38 6 -61 7 -50 4 40
27 125 34 125 5 0 8 10 8 23 0 13 7 32 15 43 15 19 15 19 30 0 8 -11 15 -28
15 -38 0 -10 4 -26 9 -36 6 -9 13 -34 16 -54 7 -43 25 -52 25 -12 0 33 20 21
21 -14 2 -27 2 -27 6 -2 8 51 25 90 38 90 17 0 24 21 32 92 3 32 9 58 13 58 4
0 11 -32 14 -71 6 -59 11 -72 27 -76 10 -3 19 -14 19 -24 0 -10 5 -21 11 -25
6 -3 9 -17 6 -30 -2 -14 0 -27 4 -30 5 -3 9 6 9 19 0 78 38 -27 39 -110 1 -31
2 -32 54 -36 50 -4 50 -4 -8 -3 l-60 1 -3 37 c-3 33 -7 38 -28 38 -21 0 -24 5
-24 34 0 53 -11 96 -26 96 -14 0 -29 36 -25 63 1 9 -3 17 -8 17 -6 0 -11 -11
-11 -24 0 -34 -10 -56 -25 -56 -14 0 -25 -43 -25 -97 0 -32 -2 -35 -25 -31
-14 3 -25 1 -25 -3 0 -5 -4 -9 -9 -9 -11 0 -21 32 -27 95 -3 28 -12 55 -20 61
-8 6 -14 23 -14 37 0 14 -4 28 -9 31 -12 8 -22 -20 -14 -39 3 -9 -2 -21 -10
-28 -9 -7 -18 -30 -21 -52 -2 -22 -5 -42 -6 -45 -1 -3 -3 -12 -4 -20 0 -8 -11
-16 -23 -18 -21 -3 -22 1 -25 65 -3 65 -4 68 -29 71 -16 2 -32 13 -39 28 -18
32 -53 31 -70 -1 -9 -17 -22 -25 -41 -25 -30 0 -39 -15 -39 -66 0 -27 -4 -34
-20 -34 -19 0 -20 7 -20 110 0 81 3 110 13 111 10 0 10 2 0 6 -7 2 -13 11 -13
18 0 10 -7 12 -30 5 -29 -8 -60 -32 -60 -45 0 -4 -11 -20 -25 -37 -22 -26 -25
-39 -25 -114 0 -83 0 -84 -25 -84 -24 0 -25 2 -25 64 0 70 -22 136 -45 136 -8
0 -15 6 -15 14 0 16 -32 26 -60 19 -11 -3 -20 -12 -20 -19 0 -8 -6 -14 -12
-14 -20 0 -41 -50 -47 -115 -4 -44 -10 -60 -21 -60 -11 0 -16 13 -18 49 -3 47
-19 76 -41 76 -6 0 -11 -4 -11 -10 0 -6 -28 -10 -65 -10 -62 0 -65 1 -65 24 0
25 -16 36 -55 36 -52 0 -55 -6 -55 -101 0 -73 -3 -91 -16 -96 -25 -9 -34 16
-34 104 0 50 -4 83 -11 85 -6 2 -14 30 -18 62 -4 45 -11 62 -28 73 -19 13 -24
12 -42 -6 -16 -16 -21 -34 -21 -71 0 -36 -4 -52 -15 -56 -12 -5 -15 -24 -15
-84 0 -87 -5 -110 -26 -110 -11 0 -14 16 -14 65 0 45 -4 65 -12 66 -7 1 -24 2
-38 3 -19 1 -26 7 -28 26 -2 14 -9 31 -14 38 -13 15 -100 16 -116 0 -7 -7 -12
-42 -12 -85 0 -71 -1 -73 -25 -73 l-25 0 0 104 c0 58 -3 107 -8 110 -4 2 -22
-2 -40 -9 l-32 -14 0 -116 c0 -108 -1 -115 -20 -115 -15 0 -20 7 -20 28 0 35
-40 56 -76 40 -18 -9 -24 -19 -24 -45 0 -31 -2 -33 -36 -33 l-36 0 4 40 c4 40
3 41 -37 52 -22 6 -44 15 -49 19 -5 5 -14 5 -20 1 -6 -5 -30 -14 -52 -20 l-42
-12 6 -45 c3 -28 1 -45 -6 -45 -6 0 -12 -15 -14 -32 l-3 -33 -60 -1 -60 -1 55
6 c52 6 55 8 58 36 2 17 8 34 13 39 12 14 11 46 -2 46 -6 0 -9 12 -7 28 2 15
7 25 12 24 5 -2 13 2 17 10 7 11 9 10 9 -1 0 -11 4 -9 15 5 11 14 14 15 15 4
0 -12 2 -13 9 -1 5 7 14 11 20 7 7 -4 13 9 18 36 l7 43 8 -42 c7 -31 13 -40
23 -36 9 3 15 -1 15 -8 0 -12 2 -12 9 0 6 9 11 10 15 2 4 -6 12 -9 17 -6 5 4
9 1 9 -4 0 -6 6 -10 13 -9 7 2 13 -9 15 -24 2 -16 -1 -28 -7 -28 -6 0 -11 -9
-11 -20 0 -14 7 -20 21 -20 18 0 21 5 17 31 -4 27 0 32 32 49 33 17 40 17 65
4 15 -8 31 -14 36 -14 5 0 9 26 9 59 0 103 6 117 56 131 25 7 48 10 51 6 4 -4
10 -55 13 -114 6 -100 7 -102 9 -32 2 99 11 110 90 110 l63 0 15 -40 c10 -24
22 -39 32 -38 48 4 51 0 51 -63 0 -37 4 -58 10 -54 6 3 10 40 10 81 0 41 4 82
9 92 6 9 13 38 16 64 4 35 13 53 32 68 31 24 28 24 58 4z"/>
<path d="M691 374 c0 -11 3 -14 6 -6 3 7 2 16 -1 19 -3 4 -6 -2 -5 -13z"/>
</g>
</svg>
